<svg xmlns="http://www.w3.org/2000/svg" width="632" height="365" viewBox="0 0 632 365" version="1.1"><path d="M 492.500 10.686 C 483.917 11.047, 460.323 13.517, 445.500 15.606 C 420.441 19.137, 385.130 27.681, 377 32.181 C 373.301 34.228, 373.495 34.180, 384.500 30.359 C 397.616 25.804, 432.907 17.869, 439 18.104 C 441.826 18.213, 439.489 18.795, 427.500 20.967 C 423.650 21.664, 416 23.346, 410.500 24.705 C 405 26.064, 398.525 27.584, 396.112 28.083 C 393.699 28.583, 390.367 29.668, 388.708 30.496 C 387.050 31.323, 384.952 32, 384.046 32 C 383.141 32, 381.919 32.481, 381.331 33.069 C 380.743 33.657, 379.640 34.264, 378.881 34.418 C 377.016 34.796, 374.440 35.819, 368.513 38.538 C 365.770 39.796, 363.080 40.550, 362.536 40.213 C 361.991 39.877, 364.236 38.330, 367.523 36.776 C 370.810 35.222, 372.375 34.245, 371 34.606 C 367.930 35.410, 357 40.831, 357 41.550 C 357 41.836, 357.870 41.605, 358.934 41.035 C 361.547 39.637, 362.041 39.730, 361.364 41.494 C 361.048 42.316, 360.439 42.771, 360.009 42.505 C 359.578 42.239, 358.671 42.692, 357.991 43.511 C 357.311 44.330, 356.205 45, 355.533 45 C 354.860 45, 353.505 45.889, 352.521 46.976 C 350.800 48.878, 348.362 48.841, 349.543 46.931 C 350.717 45.030, 348.891 46.103, 345.059 49.565 C 342.415 51.955, 341.317 53.661, 341.730 54.739 C 342.178 55.907, 341.918 56.183, 340.780 55.746 C 339.137 55.115, 334.491 59.158, 335.593 60.260 C 335.929 60.596, 335.428 61.912, 334.479 63.185 C 332.995 65.176, 332.843 65.220, 333.390 63.500 C 333.909 61.867, 333.661 61.959, 332.035 64 C 330.940 65.375, 330.041 66.950, 330.038 67.500 C 330.034 68.050, 330.508 67.825, 331.091 67 C 332.034 65.667, 332.107 65.667, 331.743 67 C 331.518 67.825, 330.804 68.500, 330.158 68.500 C 329.511 68.500, 327.974 70.075, 326.741 72 L 324.500 75.500 324.266 189 C 324.137 251.425, 323.767 305.290, 323.442 308.700 L 322.851 314.901 317.676 315.265 L 312.500 315.630 317.682 315.815 C 322.341 315.981, 323.069 315.712, 324.899 313.142 C 326.313 311.156, 327.095 308.077, 327.462 303.040 C 327.752 299.056, 328.687 293.743, 329.539 291.234 C 330.391 288.724, 330.819 285.971, 330.491 285.116 C 330.163 284.261, 330.218 283.885, 330.615 284.281 C 331.513 285.180, 339.339 271.117, 339.221 268.817 C 339.173 267.891, 339.892 266.541, 340.817 265.817 C 342.362 264.608, 342.377 264.664, 341 266.500 C 339.621 268.338, 339.637 268.393, 341.191 267.177 C 342.120 266.449, 342.637 265.217, 342.338 264.439 C 342.009 263.581, 344.056 260.852, 347.532 257.512 C 350.687 254.480, 352.871 251.971, 352.384 251.937 C 351.898 251.902, 352.541 251.456, 353.814 250.945 C 355.206 250.387, 355.842 249.554, 355.410 248.854 C 354.974 248.149, 355.126 247.960, 355.796 248.374 C 356.413 248.755, 359.457 246.523, 362.700 243.309 C 365.890 240.149, 368.050 238.245, 367.500 239.079 C 366.950 239.912, 367.503 239.452, 368.729 238.057 C 369.955 236.661, 371.754 235.515, 372.727 235.509 C 373.699 235.504, 374.496 234.975, 374.497 234.333 C 374.499 233.692, 374.910 232.792, 375.410 232.333 C 375.939 231.849, 376.019 232.024, 375.601 232.750 C 375.206 233.438, 375.246 233.986, 375.691 233.968 C 377.101 233.913, 380.500 230.960, 380.500 229.790 C 380.500 229.172, 381.175 228.482, 382 228.257 C 383.333 227.893, 383.333 227.966, 382 228.909 C 381.175 229.492, 380.976 229.976, 381.559 229.985 C 382.141 229.993, 383.491 229.292, 384.559 228.426 C 385.626 227.560, 385.868 227.180, 385.095 227.580 C 384.195 228.048, 383.937 227.911, 384.378 227.198 C 384.755 226.587, 385.798 226.369, 386.696 226.714 C 387.619 227.068, 388.071 226.924, 387.737 226.384 C 387.413 225.859, 387.901 225.392, 388.823 225.347 C 389.746 225.303, 394.550 223.443, 399.500 221.214 C 404.450 218.986, 410.689 216.284, 413.365 215.211 C 416.466 213.967, 417.785 212.985, 417.003 212.502 C 416.328 212.085, 415.489 212.175, 415.138 212.702 C 414.531 213.613, 401 219.175, 401 218.514 C 401 218.340, 402.601 217.253, 404.559 216.098 C 406.516 214.943, 407.839 213.549, 407.500 212.999 C 407.160 212.450, 407.359 212, 407.941 212 C 408.523 212, 409 212.450, 409 213 C 409 213.550, 409.563 213.993, 410.250 213.985 C 412.535 213.957, 414.299 212.223, 413.681 210.612 C 413.200 209.358, 412.536 209.226, 410.536 209.986 C 408.504 210.759, 408 210.645, 408 209.416 C 408 208.572, 407.550 208.160, 407 208.500 C 406.450 208.840, 406 208.641, 406 208.059 C 406 206.718, 407.683 206.678, 408.500 208 C 409.471 209.571, 411 209.170, 411 207.345 C 411 205.828, 411.158 205.833, 412.901 207.410 C 414.329 208.703, 414.989 208.827, 415.555 207.911 C 416.010 207.175, 415.892 206.949, 415.259 207.340 C 414.682 207.697, 413.908 207.204, 413.540 206.244 C 412.683 204.010, 412.768 203.500, 414 203.500 C 414.550 203.500, 414.887 203.050, 414.750 202.500 C 414.613 201.950, 414.129 201.624, 413.676 201.775 C 413.222 201.926, 413.113 201.627, 413.432 201.110 C 413.751 200.594, 413.447 199.905, 412.756 199.579 C 412.065 199.254, 412.800 199.240, 414.390 199.548 C 417.244 200.101, 417.272 200.061, 416.668 196.304 C 416.332 194.212, 416.381 192.950, 416.778 193.500 C 417.175 194.050, 418.498 194.605, 419.719 194.733 C 421.705 194.941, 421.836 194.699, 420.969 192.418 C 419.744 189.195, 419.744 188, 420.969 188 C 421.501 188, 421.678 188.675, 421.362 189.500 C 421.045 190.325, 421.236 191, 421.786 191 C 423.672 191, 423.711 188.500, 421.856 186.575 C 420.835 185.516, 420 185.179, 420 185.825 C 420 186.471, 419.239 187, 418.309 187 C 416.823 187, 416.850 186.831, 418.524 185.606 C 419.880 184.615, 421.131 184.480, 422.864 185.138 C 424.932 185.925, 425.117 185.846, 424.092 184.611 C 423.084 183.396, 423.252 183.253, 425.112 183.739 C 426.859 184.197, 427.206 183.979, 426.725 182.725 C 426.388 181.847, 426.650 180.875, 427.306 180.565 C 428.198 180.143, 428.168 179.847, 427.189 179.396 C 426.152 178.919, 426.218 178.417, 427.504 176.996 C 428.577 175.810, 428.768 174.974, 428.065 174.540 C 426.691 173.691, 426.687 172, 428.059 172 C 428.641 172, 428.813 172.493, 428.441 173.096 C 428.026 173.768, 428.446 174.058, 429.524 173.846 C 432.723 173.218, 433.648 170.378, 431.458 167.913 L 429.500 165.709 431.684 166.854 C 434.553 168.359, 435 168.303, 435 166.441 C 435 165.584, 434.555 165.157, 434.011 165.493 C 433.445 165.843, 433.277 165.442, 433.618 164.552 C 433.947 163.696, 433.691 163, 433.048 163 C 432.407 163, 432.200 162.486, 432.588 161.857 C 433.040 161.127, 433.794 161.668, 434.679 163.357 C 436.288 166.429, 436.577 166.545, 437.382 164.448 C 437.709 163.594, 437.580 163.142, 437.095 163.441 C 436.609 163.741, 436.277 162.903, 436.356 161.579 C 436.459 159.863, 436.836 159.450, 437.670 160.141 C 438.983 161.231, 438.983 159.363, 437.670 157.261 C 437.149 156.427, 437.377 156.207, 438.368 156.588 C 439.468 157.010, 439.769 156.498, 439.557 154.567 C 439.341 152.599, 439.571 152.229, 440.520 153.016 C 441.416 153.760, 441.940 153.599, 442.383 152.444 C 443.289 150.085, 443.156 149.726, 441.598 150.324 C 440.827 150.620, 439.933 150.600, 439.613 150.280 C 438.797 149.464, 444.008 146.887, 445.104 147.564 C 445.597 147.869, 446 147.641, 446 147.059 C 446 146.477, 446.477 146, 447.059 146 C 447.641 146, 447.840 146.450, 447.500 147 C 447.160 147.550, 447.394 148, 448.020 148 C 448.765 148, 448.931 146.962, 448.500 145 C 448.085 143.113, 448.241 142, 448.921 142 C 449.514 142, 450 141.298, 450 140.441 C 450 139.584, 449.641 139.104, 449.202 139.375 C 448.763 139.646, 447.751 139.455, 446.952 138.949 C 445.812 138.228, 445.970 138.027, 447.691 138.015 C 450.421 137.996, 451.535 136.349, 450.038 134.545 C 449.258 133.605, 449.231 132.975, 449.951 132.530 C 450.528 132.174, 451 132.584, 451 133.441 C 451 134.298, 451.675 135, 452.500 135 C 454.403 135, 454.382 134.513, 452.346 131.405 C 451.097 129.500, 450.488 129.202, 449.861 130.190 C 449.283 131.102, 449.026 131.138, 449.015 130.309 C 448.994 128.668, 450.517 127.877, 452.347 128.580 C 453.187 128.902, 453.629 129.803, 453.330 130.583 C 453.031 131.362, 453.254 132, 453.826 132 C 454.857 132, 456.579 128.190, 456.198 126.750 C 456.089 126.338, 456.684 126, 457.519 126 C 458.664 126, 458.874 125.346, 458.372 123.345 C 457.799 121.062, 457.978 120.761, 459.647 121.197 C 461.930 121.794, 462.575 118.642, 461.011 114.529 C 460.482 113.138, 460.440 112, 460.918 112 C 462.014 112, 463.388 115.066, 463.091 116.850 C 462.967 117.593, 463.315 117.923, 463.864 117.584 C 464.413 117.245, 465.144 117.425, 465.490 117.984 C 465.835 118.543, 466.626 119, 467.248 119 C 467.869 119, 467.348 118.041, 466.090 116.870 C 464.820 115.686, 464.235 114.464, 464.775 114.120 C 465.309 113.779, 465.690 111.747, 465.623 109.604 C 465.514 106.165, 465.793 105.668, 468 105.368 C 470.470 105.032, 470.476 105.049, 468.500 106.764 C 466.374 108.610, 465.596 116, 467.528 116 C 468.095 116, 468.459 114.242, 468.338 112.084 C 468.190 109.441, 468.587 107.989, 469.560 107.616 C 471.181 106.993, 471.546 104, 470 104 C 469.450 104, 469 103.460, 469 102.800 C 469 101.874, 469.271 101.871, 470.186 102.786 C 471.705 104.305, 475.132 101.507, 474.326 99.406 C 473.483 97.211, 471.788 97.756, 472.498 99.994 C 472.944 101.399, 472.743 101.838, 471.815 101.482 C 471.092 101.204, 470.439 99.912, 470.363 98.611 C 470.253 96.696, 470.616 96.348, 472.270 96.781 C 473.643 97.140, 474.081 96.939, 473.604 96.169 C 473.131 95.402, 473.464 95.241, 474.612 95.681 C 475.776 96.128, 476.096 95.964, 475.605 95.170 C 475.194 94.506, 475.448 93.993, 476.191 93.985 C 477.154 93.973, 477.104 93.686, 476 92.898 C 474.795 92.037, 474.942 91.923, 476.749 92.319 C 477.986 92.590, 479.250 92.404, 479.558 91.906 C 479.866 91.408, 478.911 91, 477.437 91 C 475.134 91, 474.936 90.782, 476.035 89.458 C 476.923 88.388, 477.634 88.234, 478.358 88.958 C 479.732 90.332, 482 90.292, 482 88.893 C 482 88.284, 481.348 88.036, 480.551 88.342 C 479.533 88.733, 479.286 88.418, 479.721 87.285 C 480.095 86.310, 479.932 85.924, 479.308 86.310 C 478.711 86.678, 478.323 86.044, 478.388 84.807 C 478.450 83.629, 479.074 82.550, 479.775 82.408 C 480.476 82.266, 480.589 82.379, 480.025 82.658 C 478.168 83.579, 478.958 85.244, 480.999 84.711 C 482.098 84.423, 483.264 84.617, 483.588 85.142 C 483.956 85.737, 484.650 85.705, 485.431 85.057 C 486.120 84.485, 487.041 84.351, 487.477 84.759 C 487.914 85.166, 487.739 84.478, 487.089 83.229 C 486.439 81.980, 486.177 80.523, 486.506 79.991 C 486.842 79.447, 486.424 79.284, 485.552 79.618 C 484.698 79.946, 484 79.716, 484 79.107 C 484 78.498, 484.675 78, 485.500 78 C 486.325 78, 487 77.502, 487 76.893 C 487 76.284, 486.325 76.045, 485.500 76.362 C 484.586 76.712, 484 76.363, 484 75.469 C 484 73.314, 485.661 73.678, 487.443 76.223 C 488.299 77.445, 489 77.895, 489 77.223 C 489 76.550, 489.675 76, 490.500 76 C 491.325 76, 492 76.525, 492 77.167 C 492 77.808, 492.337 77.997, 492.748 77.585 C 493.160 77.173, 492.693 76.248, 491.710 75.530 C 490.068 74.329, 490.190 74.124, 493.211 73.010 C 495.037 72.337, 495.929 71.578, 495.216 71.304 C 494.510 71.033, 493.273 71.359, 492.466 72.028 C 491.660 72.697, 491 72.844, 491 72.354 C 491 71.864, 492.238 70.696, 493.750 69.758 C 495.262 68.820, 495.938 68.041, 495.250 68.027 C 493.747 67.995, 493.581 65.377, 495.025 64.485 C 495.588 64.136, 495.926 64.421, 495.775 65.116 C 495.624 65.812, 496.288 66.553, 497.250 66.764 C 498.358 67.006, 499 66.548, 499 65.514 C 499 64.617, 498.550 64.160, 498 64.500 C 496.508 65.422, 496.793 62.666, 498.418 60.443 C 499.198 59.376, 500.198 58.864, 500.639 59.306 C 501.081 59.747, 500.845 60.478, 500.114 60.929 C 499.185 61.504, 499.119 61.955, 499.893 62.434 C 500.502 62.810, 501 62.707, 501 62.205 C 501 61.703, 502.084 60.122, 503.409 58.693 C 505.439 56.503, 505.596 55.910, 504.409 54.924 C 503.270 53.979, 503 54.174, 503 55.937 C 503 57.331, 502.583 57.861, 501.845 57.405 C 501.072 56.926, 500.955 57.154, 501.492 58.095 C 502.152 59.252, 502.048 59.272, 500.905 58.208 C 499.732 57.117, 499.729 56.786, 500.886 56.070 C 501.684 55.577, 501.929 54.695, 501.474 53.957 C 500.964 53.133, 501.094 52.940, 501.845 53.405 C 503.495 54.424, 503.272 53.129, 501.491 51.348 C 500.661 50.518, 500.239 49.422, 500.555 48.912 C 501.236 47.809, 503.314 49.715, 504.318 52.363 C 504.895 53.885, 505.296 53.999, 506.512 52.990 C 507.330 52.311, 508.018 52.148, 508.040 52.628 C 508.062 53.107, 508.751 52.262, 509.572 50.750 C 510.393 49.237, 511.500 48, 512.032 48 C 512.564 48, 513 47.298, 513 46.441 C 513 45.584, 512.597 45.131, 512.105 45.435 C 511.612 45.740, 510.932 45.266, 510.593 44.383 C 510.133 43.184, 510.403 42.941, 511.659 43.423 C 512.592 43.780, 513.703 43.496, 514.155 42.784 C 515.494 40.673, 515.108 39.666, 513.477 41.019 C 512.204 42.076, 512.057 42.014, 512.584 40.641 C 512.931 39.739, 513.616 39, 514.107 39 C 514.598 39, 515 38.073, 515 36.941 C 515 35.809, 515.450 35.160, 516 35.500 C 516.550 35.840, 517 35.641, 517 35.059 C 517 34.477, 516.298 34, 515.441 34 C 514.584 34, 514.148 33.570, 514.473 33.044 C 514.798 32.518, 515.750 32.351, 516.588 32.672 C 517.994 33.212, 519.449 32.081, 522.757 27.876 C 523.867 26.465, 523.580 26.312, 520.307 26.572 C 517.991 26.755, 517.111 26.550, 517.962 26.024 C 519.084 25.330, 519.031 24.888, 517.662 23.519 C 515.640 21.497, 515.525 20.604, 517.378 21.315 C 519.764 22.230, 521.186 19.863, 519.421 17.913 C 518.391 16.775, 518.228 15.977, 518.935 15.540 C 519.521 15.178, 520 14.403, 520 13.819 C 520 13.107, 519.587 13.082, 518.750 13.744 C 518.063 14.288, 515.587 14.569, 513.250 14.369 C 509.137 14.016, 508.374 14.573, 508.965 17.500 C 509.076 18.050, 508.830 18.163, 508.418 17.752 C 508.007 17.340, 507.546 15.840, 507.394 14.417 C 507.194 12.538, 507.503 11.979, 508.527 12.372 C 509.302 12.669, 510.253 12.400, 510.640 11.773 C 511.104 11.023, 511.604 11.295, 512.102 12.566 C 512.737 14.187, 512.871 14.224, 512.930 12.798 C 512.986 11.424, 514.205 11.027, 519.250 10.740 C 522.688 10.545, 519.650 10.387, 512.500 10.389 C 505.350 10.390, 496.350 10.524, 492.500 10.686 M 106.997 13.850 C 103.525 17.321, 103.419 17.992, 102.020 45.500 C 101.405 57.600, 99.796 83.700, 98.445 103.500 C 95.001 153.970, 93.675 179.570, 94.364 182.314 C 95.230 185.766, 102.985 194.220, 104.686 193.567 C 105.466 193.268, 105.843 193.445, 105.524 193.961 C 104.757 195.202, 108.184 195.636, 129 196.936 C 147.792 198.109, 161.584 199.886, 177.500 203.184 C 190.982 205.978, 193.265 206.286, 188.342 204.649 C 186.055 203.888, 178.746 202.217, 172.099 200.937 C 164.426 199.458, 160.469 198.291, 161.258 197.739 C 162.019 197.206, 161.582 197.129, 160.128 197.540 C 158.824 197.910, 152.524 197.607, 146.128 196.868 C 137.077 195.822, 135.386 195.410, 138.500 195.006 C 140.700 194.721, 142.725 194.716, 143 194.994 C 143.945 195.951, 147 195.777, 147 194.766 C 147 194.201, 147.680 194.319, 148.542 195.035 C 149.711 196.005, 150.366 196.034, 151.242 195.158 C 152.119 194.281, 152.109 194, 151.200 194 C 150.540 194, 150 193.512, 150 192.917 C 150 192.321, 150.558 192.019, 151.241 192.247 C 153.159 192.886, 156.685 188.150, 156.134 185.676 C 156.033 185.222, 156.381 185.117, 156.906 185.442 C 157.432 185.767, 158.149 185.568, 158.500 185 C 158.851 184.432, 159.464 184.169, 159.862 184.414 C 160.259 184.660, 160.650 183.993, 160.730 182.931 C 160.817 181.786, 160.241 181, 159.315 181 C 158.042 181, 157.984 180.724, 159 179.500 C 159.685 178.675, 159.875 178, 159.422 178 C 158.970 178, 159.140 177.460, 159.800 176.800 C 160.460 176.140, 161 174.790, 161 173.800 C 161 172.810, 161.477 172, 162.059 172 C 162.641 172, 162.840 172.449, 162.501 172.998 C 162.162 173.547, 162.610 175.010, 163.498 176.248 L 165.112 178.500 164.481 175.886 C 164.032 174.021, 164.298 173.100, 165.409 172.673 C 166.265 172.345, 166.716 171.424, 166.411 170.628 C 165.805 169.049, 169.273 167.433, 170.991 168.494 C 172.580 169.476, 172.168 167.384, 170.500 166 C 169.464 165.140, 169 165.102, 169 165.878 C 169 166.495, 168.466 167, 167.813 167 C 167.160 167, 167.947 165.621, 169.561 163.936 C 171.926 161.468, 172.108 160.997, 170.498 161.512 C 168.693 162.089, 168.670 162.042, 170.258 161.021 C 171.225 160.400, 172.462 160.168, 173.008 160.505 C 173.554 160.842, 174 160.690, 174 160.166 C 174 159.642, 173.274 158.936, 172.387 158.595 C 171.058 158.085, 170.999 157.707, 172.049 156.441 C 173.068 155.213, 173.488 155.165, 174.146 156.203 C 175.380 158.148, 175.273 155.379, 174.024 153.045 C 173.252 151.601, 173.460 151.113, 175.024 150.704 C 176.866 150.222, 177.574 147.906, 177.042 144.106 C 176.934 143.340, 177.430 142.352, 178.144 141.911 C 178.858 141.470, 179.163 140.830, 178.822 140.488 C 178.480 140.147, 177.256 140.882, 176.101 142.122 C 174.945 143.363, 174 143.875, 174 143.261 C 174 142.647, 175.163 141.231, 176.584 140.113 C 178.229 138.819, 178.886 137.612, 178.392 136.790 C 177.832 135.859, 178.094 135.888, 179.331 136.891 C 180.327 137.700, 180.809 139.026, 180.482 140.057 C 180.172 141.033, 180.387 142.121, 180.959 142.475 C 181.532 142.829, 182 142.416, 182 141.559 C 182 140.702, 182.459 140, 183.020 140 C 183.580 140, 183.835 138.875, 183.586 137.500 C 183.336 136.125, 183.601 135, 184.173 135 C 184.746 135, 184.972 134.369, 184.676 133.599 C 184.366 132.791, 184.886 132.002, 185.903 131.736 C 188.007 131.185, 188.317 133.826, 186.376 135.767 C 185.648 136.495, 185.390 137.808, 185.783 138.779 C 186.376 140.238, 186.532 140.158, 186.811 138.250 C 186.991 137.012, 187.692 136, 188.369 136 C 190.073 136, 189.180 129.006, 187.387 128.318 C 186.631 128.028, 186.340 127.275, 186.740 126.645 C 187.463 125.511, 187.566 125.175, 187.945 122.750 C 188.053 122.063, 188.498 122.400, 188.934 123.500 C 189.411 124.703, 189.295 125.777, 188.642 126.196 C 187.062 127.209, 188.425 128.158, 190.382 127.407 C 191.647 126.922, 191.783 126.443, 190.943 125.431 C 190.333 124.697, 190.145 123.118, 190.525 121.923 C 190.987 120.465, 190.854 119.972, 190.119 120.427 C 189.429 120.853, 189.246 120.521, 189.626 119.531 C 190.140 118.192, 190.509 118.281, 192.115 120.132 C 194.332 122.689, 194.653 121.377, 192.546 118.369 C 191.261 116.535, 191.284 116.056, 192.746 114.255 C 194.193 112.472, 194.657 112.384, 196.450 113.557 C 198.356 114.804, 198.516 114.679, 198.724 111.770 C 198.847 110.049, 198.570 108.160, 198.107 107.571 C 197.619 106.948, 198.047 105.244, 199.128 103.500 C 200.766 100.860, 200.990 100.757, 200.995 102.643 C 201 104.658, 203.664 106.670, 204.810 105.524 C 205.098 105.236, 204.808 105, 204.167 105 C 203.525 105, 203 104.498, 203 103.883 C 203 103.231, 204.042 102.966, 205.509 103.246 C 207.503 103.628, 207.792 103.455, 206.920 102.404 C 206.296 101.652, 206.106 99.796, 206.478 98.100 C 206.838 96.459, 206.637 94.191, 206.031 93.059 C 205.295 91.682, 205.273 91, 205.965 91 C 206.534 91, 207 90.523, 207 89.941 C 207 89.359, 206.601 89.129, 206.113 89.430 C 205.626 89.731, 204.700 89.343, 204.056 88.568 C 203.113 87.431, 203.236 87.239, 204.693 87.576 C 205.687 87.806, 207.398 87.303, 208.495 86.458 C 210.104 85.219, 210.224 84.757, 209.117 84.072 C 208.335 83.589, 208.074 82.690, 208.510 81.983 C 209.088 81.048, 209.501 81.143, 210.188 82.372 C 211.314 84.383, 213 84.501, 213 82.567 C 213 81.779, 212.022 80.824, 210.827 80.445 L 208.654 79.755 211.070 78.462 C 212.848 77.511, 213.672 77.470, 214.189 78.306 C 214.575 78.931, 215.213 79.120, 215.606 78.727 C 215.999 78.334, 215.574 77.187, 214.661 76.177 C 212.511 73.802, 212.547 71.353, 214.750 70.120 C 215.713 69.581, 216.387 68.884, 216.250 68.570 C 215.531 66.929, 216.298 66.296, 219.103 66.216 C 222.954 66.107, 224.345 65, 220.631 65 C 218.165 65, 218.031 64.810, 219.096 62.820 C 220.199 60.760, 220.335 60.738, 221.567 62.422 C 222.736 64.022, 223.086 64.053, 224.980 62.727 C 226.744 61.491, 226.837 61.151, 225.545 60.656 C 224.567 60.280, 224 60.624, 224 61.590 C 224 62.431, 223.608 62.876, 223.129 62.580 C 222.212 62.013, 222.577 56.084, 223.590 55.083 C 223.915 54.763, 225.153 54.500, 226.340 54.500 C 227.821 54.500, 228.512 53.871, 228.537 52.499 C 228.558 51.398, 228.896 49.978, 229.289 49.342 C 229.753 48.590, 229.391 48.344, 228.251 48.636 C 227.220 48.901, 225.992 48.261, 225.265 47.080 C 224.228 45.396, 224.268 45.166, 225.515 45.644 C 226.332 45.957, 227 46.553, 227 46.968 C 227 47.383, 228.151 47.503, 229.558 47.234 C 231.257 46.909, 231.932 46.266, 231.569 45.320 C 231.269 44.537, 231.416 44.139, 231.897 44.436 C 232.378 44.734, 232.990 43.831, 233.258 42.430 C 233.616 40.558, 233.381 40.023, 232.372 40.411 C 230.354 41.185, 230.698 39.232, 233.199 35.721 C 234.983 33.215, 235.080 32.755, 233.713 33.280 C 232.276 33.831, 232.203 33.647, 233.215 32.028 C 233.867 30.984, 234.685 30.305, 235.033 30.521 C 235.382 30.736, 235.667 30.257, 235.667 29.456 C 235.667 27.545, 233.262 27.595, 231.310 29.548 C 230.458 30.399, 229.478 30.787, 229.131 30.411 C 228.784 30.034, 229.063 29.525, 229.750 29.280 C 232.329 28.359, 230.829 27.006, 225.513 25.461 C 222.495 24.584, 219.458 24.187, 218.763 24.580 C 217.805 25.121, 217.776 24.995, 218.642 24.054 C 220.247 22.314, 230.117 24.664, 258.717 33.594 C 260.174 34.049, 260.226 33.972, 259 33.171 C 257.440 32.152, 241.464 26.882, 234.500 25.089 C 206.350 17.844, 150.850 11.005, 120.173 11.001 C 110.153 11, 109.762 11.085, 106.997 13.850 M 107.455 14.455 C 105.458 16.451, 105.034 17.804, 105.180 21.705 L 105.360 26.500 105.731 21.859 C 106.349 14.100, 107.689 13.508, 124.340 13.632 C 137.249 13.728, 137.749 13.669, 130 12.968 C 113.688 11.492, 110.187 11.722, 107.455 14.455 M 486 12.947 C 483.869 13.363, 486.507 13.605, 492.741 13.565 C 498.374 13.529, 502.986 13.162, 502.991 12.750 C 503.002 11.847, 490.914 11.987, 486 12.947 M 470.500 14 L 464.500 14.664 469.500 14.774 C 472.250 14.835, 476.300 14.512, 478.500 14.057 C 481.749 13.385, 481.937 13.240, 479.500 13.283 C 477.850 13.312, 473.800 13.635, 470.500 14 M 142.092 14.425 C 142.814 15.147, 156.973 15.361, 157.673 14.660 C 158.036 14.297, 154.583 14, 150 14 C 145.417 14, 141.858 14.191, 142.092 14.425 M 162.762 15.707 C 164.006 15.946, 165.806 15.937, 166.762 15.687 C 167.718 15.437, 166.700 15.241, 164.500 15.252 C 162.300 15.263, 161.518 15.468, 162.762 15.707 M 452 16 L 448.500 16.737 452 16.750 C 453.925 16.757, 456.850 16.420, 458.500 16 L 461.500 15.237 458.500 15.250 C 456.850 15.257, 453.925 15.595, 452 16 M 170.762 16.707 C 172.006 16.946, 173.806 16.937, 174.762 16.687 C 175.718 16.437, 174.700 16.241, 172.500 16.252 C 170.300 16.263, 169.518 16.468, 170.762 16.707 M 179.762 17.707 C 181.006 17.946, 182.806 17.937, 183.762 17.687 C 184.718 17.437, 183.700 17.241, 181.500 17.252 C 179.300 17.263, 178.518 17.468, 179.762 17.707 M 191 19.353 C 193.475 20.009, 196.625 20.333, 198 20.074 C 200.125 19.673, 199.900 19.491, 196.500 18.859 C 194.300 18.450, 191.150 18.126, 189.500 18.138 C 186.976 18.157, 187.214 18.350, 191 19.353 M 531.430 28.500 C 531.798 34.550, 532.288 41.525, 532.520 44 C 532.751 46.475, 533.891 60.650, 535.053 75.500 C 537.506 106.860, 538.692 118.925, 538.838 114 C 538.895 112.075, 538.516 104.875, 537.995 98 C 537.474 91.125, 535.933 70.484, 534.571 52.131 C 533.209 33.777, 531.795 18.477, 531.429 18.131 C 531.062 17.784, 531.063 22.450, 531.430 28.500 M 212.630 23.030 C 213.313 23.713, 214.478 23.734, 216.080 23.094 C 218.354 22.185, 218.292 22.123, 215.050 22.063 C 212.682 22.020, 211.923 22.323, 212.630 23.030 M 519.250 33.742 C 517.566 34.314, 517.669 35.659, 519.449 36.342 C 520.481 36.738, 520.720 36.409, 520.280 35.199 C 519.744 33.727, 519.951 33.755, 521.830 35.405 C 523.024 36.453, 524 36.898, 524 36.396 C 524 35.075, 520.719 33.242, 519.250 33.742 M 225.500 37 C 225.160 37.550, 225.535 38, 226.334 38 C 227.133 38, 228.070 38.739, 228.417 39.643 C 228.763 40.547, 229.293 41.041, 229.593 40.741 C 230.236 40.097, 227.838 36, 226.818 36 C 226.433 36, 225.840 36.450, 225.500 37 M 518 40.178 C 516.352 41.570, 515.928 42.440, 516.756 42.730 C 517.447 42.973, 517.761 43.577, 517.454 44.074 C 517.147 44.571, 517.684 44.675, 518.648 44.305 C 519.724 43.892, 519.937 43.479, 519.199 43.233 C 518.540 43.013, 518 42.394, 518 41.858 C 518 41.321, 518.403 41.131, 518.895 41.435 C 519.388 41.740, 520.095 41.204, 520.467 40.244 C 521.096 38.622, 521.243 38.636, 522.571 40.441 C 523.357 41.509, 524 41.936, 524 41.391 C 524 40.318, 521.945 37.979, 521.050 38.033 C 520.748 38.052, 519.375 39.017, 518 40.178 M 226.402 41.841 C 226.738 42.384, 226.469 43.010, 225.805 43.232 C 224.868 43.544, 224.866 43.799, 225.799 44.376 C 226.475 44.793, 227 44.601, 227 43.937 C 227 43.056, 227.382 43.072, 228.500 44 C 229.325 44.685, 230 44.848, 230 44.363 C 230 43.878, 229.053 42.890, 227.895 42.167 C 226.738 41.444, 226.066 41.297, 226.402 41.841 M 85 45.082 C 83.848 45.887, 84.060 45.972, 85.909 45.448 L 88.319 44.764 87.671 56.132 C 86.076 84.138, 86.037 88.900, 87.537 72.500 C 89.113 55.272, 89.100 44.847, 87.500 44.346 C 86.950 44.173, 85.825 44.505, 85 45.082 M 546.667 44.667 C 545.822 45.511, 546.011 56.376, 547.029 65.500 C 547.562 70.271, 547.644 68.243, 547.287 59.132 C 546.870 48.478, 547.042 45.588, 548.132 44.897 C 548.884 44.421, 549.013 44.024, 548.417 44.015 C 547.821 44.007, 547.033 44.300, 546.667 44.667 M 74.732 50.536 C 72.679 51.931, 71 53.287, 71 53.550 C 71 53.813, 72.800 52.837, 75 51.381 C 78.493 49.070, 79.674 48, 78.732 48 C 78.585 48, 76.785 49.141, 74.732 50.536 M 344.766 51.057 L 341.500 54.114 344.629 52.594 C 346.350 51.758, 348.023 50.382, 348.347 49.537 C 349.207 47.297, 348.430 47.627, 344.766 51.057 M 505.372 50.766 C 505.479 52.665, 505.678 52.789, 506.599 51.532 C 507.203 50.706, 507.935 50.269, 508.225 50.559 C 508.516 50.849, 509 50.442, 509.303 49.654 C 509.689 48.646, 509.169 48.262, 507.548 48.360 C 505.818 48.465, 505.275 49.066, 505.372 50.766 M 295.750 56.258 C 298.565 59.425, 302.314 64.248, 304.081 66.976 C 305.855 69.713, 307.767 71.644, 308.348 71.285 C 309.052 70.850, 309.001 70.500, 308.195 70.232 C 307.531 70.010, 307.242 69.418, 307.553 68.915 C 307.864 68.412, 307.641 68, 307.059 68 C 306.477 68, 306 67.426, 306 66.725 C 306 66.024, 302.542 62.086, 298.316 57.975 C 291.733 51.571, 291.365 51.325, 295.750 56.258 M 224 57 C 224 58.100, 224.354 59, 224.787 59 C 225.220 59, 225.642 58.100, 225.725 57 C 225.808 55.900, 225.454 55, 224.938 55 C 224.422 55, 224 55.900, 224 57 M 56.475 70.048 C 55.609 71.724, 54.464 77.011, 53.932 81.798 C 53.400 86.584, 52.298 95.058, 51.482 100.628 C 50.667 106.199, 50.053 112.274, 50.118 114.128 C 50.250 117.865, 53.448 96.673, 54.915 82.343 C 55.431 77.306, 56.572 71.794, 57.452 70.093 C 58.332 68.392, 58.826 67, 58.551 67 C 58.276 67, 57.342 68.371, 56.475 70.048 M 216.425 68.879 C 216.724 69.363, 217.902 70.003, 219.042 70.301 C 220.743 70.746, 220.903 70.588, 219.935 69.421 C 218.670 67.898, 215.518 67.411, 216.425 68.879 M 309.216 156.067 C 309.353 201.955, 309.725 254.350, 310.042 272.500 C 310.360 290.650, 310.420 253.300, 310.177 189.500 C 309.934 125.700, 309.562 73.305, 309.351 73.067 C 309.140 72.829, 309.079 110.179, 309.216 156.067 M 548.300 79 C 548.300 82.025, 548.487 83.263, 548.716 81.750 C 548.945 80.237, 548.945 77.763, 548.716 76.250 C 548.487 74.737, 548.300 75.975, 548.300 79 M 579.177 76 C 579.162 77.375, 579.766 82.100, 580.518 86.500 L 581.887 94.500 581.366 87.488 C 580.797 79.832, 579.226 71.582, 579.177 76 M 483.188 82.063 C 483.428 82.784, 484.216 83.572, 484.938 83.813 C 485.688 84.063, 486.063 83.688, 485.813 82.938 C 485.572 82.216, 484.784 81.428, 484.063 81.188 C 483.313 80.938, 482.938 81.313, 483.188 82.063 M 549.286 91.500 C 549.294 94.250, 549.488 95.256, 549.718 93.736 C 549.947 92.216, 549.941 89.966, 549.704 88.736 C 549.467 87.506, 549.279 88.750, 549.286 91.500 M 84.640 103.332 C 84.195 110.939, 84.047 117.381, 84.313 117.646 C 84.967 118.300, 86.289 96.261, 85.822 92.500 C 85.617 90.850, 85.085 95.724, 84.640 103.332 M 100.252 100.500 C 100.263 102.700, 100.468 103.482, 100.707 102.238 C 100.946 100.994, 100.937 99.194, 100.687 98.238 C 100.437 97.282, 100.241 98.300, 100.252 100.500 M 198.443 98.586 C 199.240 99.383, 200.479 99.915, 201.196 99.768 C 201.913 99.621, 202.387 100.063, 202.250 100.750 C 202.113 101.438, 202.450 102, 203 102 C 204.405 102, 204.249 99.272, 202.792 98.372 C 202.128 97.961, 200.551 97.515, 199.289 97.380 C 197.283 97.167, 197.176 97.319, 198.443 98.586 M 550.272 104 C 550.272 106.475, 550.467 107.487, 550.706 106.250 C 550.944 105.013, 550.944 102.987, 550.706 101.750 C 550.467 100.513, 550.272 101.525, 550.272 104 M 583.252 105.500 C 583.263 107.700, 583.468 108.482, 583.707 107.238 C 583.946 105.994, 583.937 104.194, 583.687 103.238 C 583.437 102.282, 583.241 103.300, 583.252 105.500 M 194.116 107.050 C 194 109.606, 195.566 112, 197.355 112 C 197.880 112, 197.612 111.213, 196.758 110.250 C 195.905 109.287, 194.987 107.600, 194.719 106.500 C 194.324 104.876, 194.210 104.980, 194.116 107.050 M 199 106.274 C 199 107.159, 199.408 108.134, 199.906 108.442 C 200.404 108.750, 200.573 110.014, 200.281 111.251 C 199.757 113.470, 199.771 113.473, 201.343 111.500 C 203.261 109.092, 203.426 107.912, 201.795 108.250 C 201.133 108.388, 200.570 107.975, 200.545 107.333 C 200.474 105.492, 199 104.482, 199 106.274 M 470 112.833 C 470 115.568, 470.199 115.522, 471.811 112.417 C 472.667 110.767, 472.591 110.333, 471.446 110.333 C 470.570 110.333, 470 111.319, 470 112.833 M 584.272 114 C 584.272 116.475, 584.467 117.487, 584.706 116.250 C 584.944 115.013, 584.944 112.987, 584.706 111.750 C 584.467 110.513, 584.272 111.525, 584.272 114 M 551.286 116.500 C 551.294 119.250, 551.488 120.256, 551.718 118.736 C 551.947 117.216, 551.941 114.966, 551.704 113.736 C 551.467 112.506, 551.279 113.750, 551.286 116.500 M 193.631 115.702 C 192.920 116.414, 195.797 119.254, 196.801 118.830 C 197.231 118.649, 196.815 117.750, 195.875 116.833 C 194.935 115.917, 193.926 115.408, 193.631 115.702 M 49.076 119 C 49.031 119.825, 48.511 124.445, 47.919 129.266 C 47.328 134.088, 47.035 138.588, 47.268 139.266 C 47.501 139.945, 48.258 135.916, 48.950 130.314 C 49.643 124.712, 49.973 119.537, 49.684 118.814 C 49.293 117.838, 49.137 117.886, 49.076 119 M 539.261 124.500 C 539.227 127.800, 539.534 134.325, 539.944 139 L 540.690 147.500 540.714 140.500 C 540.728 136.650, 540.420 130.125, 540.031 126 L 539.323 118.500 539.261 124.500 M 585.252 122.500 C 585.263 124.700, 585.468 125.482, 585.707 124.238 C 585.946 122.994, 585.937 121.194, 585.687 120.238 C 585.437 119.282, 585.241 120.300, 585.252 122.500 M 82.982 123.250 C 82.973 125.037, 82.081 138.650, 81 153.500 C 79.114 179.413, 78.734 187.655, 79.524 185.500 C 80.595 182.579, 84.508 120, 83.620 120 C 83.279 120, 82.992 121.463, 82.982 123.250 M 455 121 C 455 121.550, 454.325 122, 453.500 122 C 452.675 122, 452 122.685, 452 123.523 C 452 124.858, 452.308 124.844, 454.491 123.414 C 455.862 122.516, 456.735 121.380, 456.432 120.891 C 455.701 119.707, 455 119.760, 455 121 M 98.252 124.500 C 98.263 126.700, 98.468 127.482, 98.707 126.238 C 98.946 124.994, 98.937 123.194, 98.687 122.238 C 98.437 121.282, 98.241 122.300, 98.252 124.500 M 552.286 128.500 C 552.294 131.250, 552.488 132.256, 552.718 130.736 C 552.947 129.216, 552.941 126.966, 552.704 125.736 C 552.467 124.506, 552.279 125.750, 552.286 128.500 M 182.406 126.152 C 182.015 126.785, 182.431 127.842, 183.332 128.501 C 184.232 129.159, 184.638 130.063, 184.234 130.509 C 183.831 130.955, 184.131 130.955, 184.901 130.508 C 186.061 129.835, 186 129.473, 184.551 128.414 C 183.588 127.709, 183.096 126.653, 183.459 126.067 C 183.821 125.480, 183.893 125, 183.618 125 C 183.343 125, 182.798 125.518, 182.406 126.152 M 586.252 130.500 C 586.263 132.700, 586.468 133.482, 586.707 132.238 C 586.946 130.994, 586.937 129.194, 586.687 128.238 C 586.437 127.282, 586.241 128.300, 586.252 130.500 M 553.300 143 C 553.300 146.025, 553.487 147.262, 553.716 145.750 C 553.945 144.238, 553.945 141.762, 553.716 140.250 C 553.487 138.738, 553.300 139.975, 553.300 143 M 44.688 155 C 43.692 162.975, 42.005 176.250, 40.941 184.500 C 39.877 192.750, 37.863 208.950, 36.466 220.500 C 35.068 232.050, 33.229 246.111, 32.378 251.747 C 31.527 257.383, 31.027 262.558, 31.267 263.247 C 31.668 264.402, 33.257 256.085, 34.467 246.500 C 34.745 244.300, 36.089 233.500, 37.455 222.500 C 38.820 211.500, 41.551 189.511, 43.523 173.635 C 45.495 157.759, 46.972 143.809, 46.804 142.635 C 46.637 141.461, 45.685 147.025, 44.688 155 M 441 142.847 C 441 143.391, 440.733 144.661, 440.406 145.668 C 439.953 147.062, 440.046 147.171, 440.794 146.122 C 441.334 145.364, 442.277 145.053, 442.888 145.431 C 444.499 146.426, 444.252 145.109, 442.500 143.357 C 441.675 142.532, 441 142.302, 441 142.847 M 588.272 147 C 588.272 149.475, 588.467 150.488, 588.706 149.250 C 588.944 148.012, 588.944 145.988, 588.706 144.750 C 588.467 143.512, 588.272 144.525, 588.272 147 M 541.320 155 C 541.320 158.575, 541.502 160.037, 541.723 158.250 C 541.945 156.463, 541.945 153.537, 541.723 151.750 C 541.502 149.963, 541.320 151.425, 541.320 155 M 589.252 155.500 C 589.263 157.700, 589.468 158.482, 589.707 157.238 C 589.946 155.994, 589.937 154.194, 589.687 153.238 C 589.437 152.282, 589.241 153.300, 589.252 155.500 M 554.328 159.500 C 554.333 163.350, 554.513 164.802, 554.730 162.728 C 554.946 160.653, 554.943 157.503, 554.722 155.728 C 554.501 153.952, 554.324 155.650, 554.328 159.500 M 542.320 169 C 542.320 172.575, 542.502 174.037, 542.723 172.250 C 542.945 170.463, 542.945 167.537, 542.723 165.750 C 542.502 163.963, 542.320 165.425, 542.320 169 M 555.320 176 C 555.320 179.575, 555.502 181.037, 555.723 179.250 C 555.945 177.463, 555.945 174.537, 555.723 172.750 C 555.502 170.963, 555.320 172.425, 555.320 176 M 161 179.044 C 161 180.436, 161.558 180.994, 162.750 180.794 C 163.869 180.606, 164.384 181.041, 164.179 182 C 163.935 183.135, 164.142 183.220, 165.029 182.350 C 165.921 181.474, 165.700 180.700, 164.100 179.100 C 161.482 176.482, 161 176.473, 161 179.044 M 592.252 182.500 C 592.263 184.700, 592.468 185.482, 592.707 184.238 C 592.946 182.994, 592.937 181.194, 592.687 180.238 C 592.437 179.282, 592.241 180.300, 592.252 182.500 M 555.810 188.500 C 555.585 190.425, 555.761 192, 556.201 192 C 556.640 192, 557 190.425, 557 188.500 C 557 186.575, 556.824 185, 556.609 185 C 556.395 185, 556.035 186.575, 555.810 188.500 M 99.996 189.496 C 101.286 190.869, 102.527 191.806, 102.754 191.579 C 103.247 191.087, 99.295 187, 98.326 187 C 97.955 187, 98.707 188.123, 99.996 189.496 M 121.750 194.723 C 123.537 194.945, 126.463 194.945, 128.250 194.723 C 130.037 194.502, 128.575 194.320, 125 194.320 C 121.425 194.320, 119.963 194.502, 121.750 194.723 M 511.784 195.738 C 514.689 195.941, 519.189 195.939, 521.784 195.734 C 524.378 195.528, 522 195.363, 516.500 195.365 C 511 195.368, 508.878 195.536, 511.784 195.738 M 498.250 196.716 C 499.762 196.945, 502.238 196.945, 503.750 196.716 C 505.262 196.487, 504.025 196.300, 501 196.300 C 497.975 196.300, 496.738 196.487, 498.250 196.716 M 475.114 199.070 C 468.301 200.090, 462.226 201.131, 461.614 201.383 C 459.222 202.369, 465.147 201.772, 480 199.531 C 488.525 198.245, 493.700 197.198, 491.500 197.205 C 489.300 197.211, 481.926 198.051, 475.114 199.070 M 450.500 203.563 C 439.421 206.142, 427.958 209.291, 428.323 209.657 C 428.522 209.856, 434.044 208.703, 440.593 207.095 C 447.142 205.487, 454.300 203.729, 456.500 203.189 C 458.700 202.649, 459.600 202.198, 458.500 202.187 C 457.400 202.176, 453.800 202.795, 450.500 203.563 M 96.888 207.293 C 97.327 207.729, 101.469 207.951, 106.093 207.785 L 114.500 207.485 105.295 206.992 C 100.233 206.722, 96.450 206.857, 96.888 207.293 M 522.784 207.738 C 525.689 207.941, 530.189 207.939, 532.784 207.734 C 535.378 207.528, 533 207.363, 527.500 207.365 C 522 207.368, 519.878 207.536, 522.784 207.738 M 118.750 208.723 C 120.537 208.945, 123.463 208.945, 125.250 208.723 C 127.037 208.502, 125.575 208.320, 122 208.320 C 118.425 208.320, 116.963 208.502, 118.750 208.723 M 507.264 208.718 C 508.784 208.947, 511.034 208.941, 512.264 208.704 C 513.494 208.467, 512.250 208.279, 509.500 208.286 C 506.750 208.294, 505.744 208.488, 507.264 208.718 M 132.768 209.725 C 134.565 209.947, 137.265 209.943, 138.768 209.715 C 140.271 209.486, 138.800 209.304, 135.500 209.310 C 132.200 209.315, 130.971 209.502, 132.768 209.725 M 493.750 209.706 C 494.988 209.944, 497.012 209.944, 498.250 209.706 C 499.488 209.467, 498.475 209.272, 496 209.272 C 493.525 209.272, 492.512 209.467, 493.750 209.706 M 421.500 211.464 C 419.850 212.219, 419.175 212.854, 420 212.874 C 420.825 212.894, 422.850 212.292, 424.500 211.536 C 426.150 210.781, 426.825 210.146, 426 210.126 C 425.175 210.106, 423.150 210.708, 421.500 211.464 M 596.252 216.500 C 596.263 218.700, 596.468 219.482, 596.707 218.238 C 596.946 216.994, 596.937 215.194, 596.687 214.238 C 596.437 213.282, 596.241 214.300, 596.252 216.500 M 396.352 219.993 C 395.171 220.470, 393.884 221.379, 393.492 222.013 C 392.911 222.953, 398.466 220.671, 399.917 219.373 C 400.632 218.733, 398.599 219.087, 396.352 219.993 M 325.923 224.250 C 325.881 226.037, 325.721 229.426, 325.567 231.780 C 325.413 234.133, 325.672 236.297, 326.143 236.589 C 326.614 236.880, 327 233.491, 327 229.059 C 327 224.627, 326.775 221, 326.500 221 C 326.225 221, 325.966 222.463, 325.923 224.250 M 599.252 243.500 C 599.263 245.700, 599.468 246.482, 599.707 245.238 C 599.946 243.994, 599.937 242.194, 599.687 241.238 C 599.437 240.282, 599.241 241.300, 599.252 243.500 M 105.500 253.565 C 104.400 253.726, 98.655 254.407, 92.733 255.079 C 86.811 255.750, 82.184 256.517, 82.450 256.783 C 82.715 257.049, 87.111 256.719, 92.216 256.051 C 97.322 255.382, 106.450 254.487, 112.500 254.062 C 122.749 253.342, 122.954 253.289, 115.500 253.281 C 111.100 253.276, 106.600 253.404, 105.500 253.565 M 142.776 253.733 C 145.128 253.945, 148.728 253.942, 150.776 253.727 C 152.824 253.512, 150.900 253.339, 146.500 253.343 C 142.100 253.346, 140.424 253.522, 142.776 253.733 M 325.157 280.250 C 325.264 298.547, 325.575 305.529, 326.102 301.500 C 327.077 294.052, 326.777 253, 325.748 253 C 325.335 253, 325.068 265.262, 325.157 280.250 M 496.250 253.746 C 501.613 253.925, 510.387 253.925, 515.750 253.746 C 521.112 253.566, 516.725 253.419, 506 253.419 C 495.275 253.419, 490.887 253.566, 496.250 253.746 M 156.750 254.706 C 157.988 254.944, 160.012 254.944, 161.250 254.706 C 162.488 254.467, 161.475 254.272, 159 254.272 C 156.525 254.272, 155.512 254.467, 156.750 254.706 M 477.762 254.707 C 479.006 254.946, 480.806 254.937, 481.762 254.687 C 482.718 254.437, 481.700 254.241, 479.500 254.252 C 477.300 254.263, 476.518 254.468, 477.762 254.707 M 531.264 254.718 C 532.784 254.947, 535.034 254.941, 536.264 254.704 C 537.494 254.467, 536.250 254.279, 533.500 254.286 C 530.750 254.294, 529.744 254.488, 531.264 254.718 M 73.500 257.719 C 71.850 257.949, 62.420 259.919, 52.544 262.097 C 42.668 264.274, 33.982 265.823, 33.242 265.539 C 32.502 265.255, 32.171 265.468, 32.507 266.011 C 33.365 267.399, 35.872 267.249, 43.169 265.371 C 46.651 264.476, 56.700 262.260, 65.500 260.447 C 79.508 257.562, 82.896 256.407, 73.500 257.719 M 40.604 259.590 C 40.268 260.465, 40.247 261.590, 40.556 262.090 C 40.865 262.591, 39.516 263, 37.559 263 C 35.602 263, 34 263.486, 34 264.079 C 34 265.442, 39.716 264.290, 42.473 262.372 C 44.436 261.006, 44.436 261, 42.473 260.921 C 41.388 260.878, 41.063 260.615, 41.750 260.338 C 43.180 259.761, 43.449 258, 42.107 258 C 41.616 258, 40.939 258.716, 40.604 259.590 M 140.500 293.019 C 137.200 293.394, 142.600 293.482, 152.500 293.213 C 162.400 292.945, 170.688 292.562, 170.917 292.363 C 171.613 291.756, 146.912 292.289, 140.500 293.019 M 194.280 292.736 C 196.909 292.943, 200.959 292.940, 203.280 292.731 C 205.601 292.521, 203.450 292.352, 198.500 292.355 C 193.550 292.358, 191.651 292.530, 194.280 292.736 M 448.308 292.748 C 455.353 292.920, 466.603 292.919, 473.308 292.747 C 480.014 292.574, 474.250 292.433, 460.500 292.434 C 446.750 292.434, 441.264 292.576, 448.308 292.748 M 210.750 293.706 C 211.988 293.944, 214.012 293.944, 215.250 293.706 C 216.488 293.467, 215.475 293.272, 213 293.272 C 210.525 293.272, 209.512 293.467, 210.750 293.706 M 425.264 293.718 C 426.784 293.947, 429.034 293.941, 430.264 293.704 C 431.494 293.467, 430.250 293.279, 427.500 293.286 C 424.750 293.294, 423.744 293.488, 425.264 293.718 M 491.768 293.725 C 493.565 293.947, 496.265 293.943, 497.768 293.715 C 499.271 293.486, 497.800 293.304, 494.500 293.310 C 491.200 293.315, 489.971 293.502, 491.768 293.725 M 126.750 294.706 C 127.987 294.944, 130.012 294.944, 131.250 294.706 C 132.488 294.467, 131.475 294.272, 129 294.272 C 126.525 294.272, 125.513 294.467, 126.750 294.706 M 108 296.500 C 97.845 298.180, 103.159 298.219, 115 296.551 C 120.772 295.737, 122.734 295.221, 120 295.236 C 117.525 295.248, 112.125 295.817, 108 296.500 M 81.500 300.787 C 77.100 301.659, 74.175 302.502, 75 302.661 C 75.825 302.819, 80.550 302.113, 85.500 301.091 C 90.450 300.070, 93.375 299.227, 92 299.218 C 90.625 299.209, 85.900 299.915, 81.500 300.787 M 62 305 C 53.364 307.400, 56.474 307.425, 66 305.032 C 70.125 303.995, 72.375 303.158, 71 303.170 C 69.625 303.183, 65.575 304.006, 62 305 M 307.112 305.273 C 308.771 308.461, 309 308.582, 309 306.274 C 309 305.141, 308.315 303.951, 307.477 303.629 C 306.197 303.138, 306.139 303.400, 307.112 305.273 M 42 309.550 C 30.527 312.317, 25.212 312.537, 22.122 310.373 C 19.903 308.819, 19.681 308.873, 17.150 311.595 C 14.510 314.433, 14.510 314.435, 17.062 312.224 C 19.364 310.230, 19.820 310.153, 21.562 311.470 C 24.487 313.683, 32.198 313.203, 44.500 310.043 C 50.550 308.489, 54.600 307.226, 53.500 307.238 C 52.400 307.249, 47.225 308.289, 42 309.550 M 17.179 314.500 C 15.159 317.068, 13.290 317.985, 14.633 315.750 C 15.114 314.950, 14.755 315.010, 13.637 315.918 C 12.677 316.698, 11.435 318.273, 10.878 319.418 C 10.095 321.028, 10.329 320.934, 11.911 319 C 14.479 315.860, 14.621 317.538, 12.109 321.348 C 10.838 323.277, 10.073 323.761, 9.739 322.848 C 9.448 322.050, 8.955 322.592, 8.533 324.178 C 8.116 325.743, 8.301 327.612, 8.979 328.678 C 10.031 330.332, 10.094 330.293, 9.662 328.250 C 9.401 327.012, 9.595 326, 10.094 326 C 10.592 326, 11 326.638, 11 327.418 C 11 328.198, 11.301 329.622, 11.670 330.582 C 12.163 331.866, 11.990 332.112, 11.015 331.510 C 10.128 330.961, 9.930 331.077, 10.415 331.862 C 10.813 332.506, 11.491 332.814, 11.923 332.548 C 12.354 332.281, 13.224 333.197, 13.856 334.583 C 16.496 340.377, 26.186 341.392, 42.264 337.560 C 47.894 336.219, 59.459 333.634, 67.964 331.817 C 76.470 330, 82.745 328.382, 81.909 328.221 C 81.073 328.060, 74.137 329.295, 66.496 330.965 C 57.225 332.991, 52.269 333.669, 51.601 333.001 C 50.933 332.333, 51.415 331.979, 53.050 331.937 L 55.500 331.873 53.250 330.969 C 51.082 330.097, 50.661 329.226, 50.851 326 C 50.900 325.175, 50.343 325.799, 49.614 327.387 C 48.751 329.266, 48.033 329.862, 47.558 329.093 C 47.156 328.444, 47.387 327.238, 48.072 326.414 C 48.955 325.349, 49.005 324.605, 48.245 323.845 C 46.835 322.435, 44.708 323.797, 45.420 325.653 C 45.751 326.514, 45.548 326.838, 44.920 326.451 C 44.339 326.092, 44.130 325.105, 44.455 324.258 C 44.779 323.411, 44.365 321.680, 43.534 320.411 C 42.581 318.957, 42.394 317.875, 43.027 317.483 C 43.580 317.141, 43.794 316.475, 43.502 316.003 C 43.210 315.531, 43.877 314.856, 44.985 314.505 C 47.049 313.850, 47.798 312, 46 312 C 45.450 312, 45 312.499, 45 313.108 C 45 313.806, 43.980 313.980, 42.250 313.578 C 40.340 313.134, 39.937 313.230, 40.932 313.891 C 41.901 314.535, 40.429 314.762, 36.373 314.591 C 33.078 314.453, 29.517 314.643, 28.459 315.014 C 27.300 315.421, 25.338 314.958, 23.518 313.848 C 19.667 311.500, 19.527 311.514, 17.179 314.500 M 44.726 320.059 C 45.002 321.114, 45.677 321.700, 46.225 321.361 C 46.774 321.021, 47.599 321.351, 48.057 322.093 C 48.516 322.835, 49.253 323.056, 49.696 322.584 C 50.138 322.112, 49.938 321.525, 49.250 321.280 C 48.563 321.034, 48 320.292, 48 319.629 C 48 318.967, 47.150 318.362, 46.112 318.283 C 44.716 318.178, 44.355 318.641, 44.726 320.059 M 160.750 319.746 C 166.387 319.924, 175.613 319.924, 181.250 319.746 C 186.887 319.568, 182.275 319.422, 171 319.422 C 159.725 319.422, 155.113 319.568, 160.750 319.746 M 137.250 320.728 C 139.313 320.944, 142.688 320.944, 144.750 320.728 C 146.813 320.513, 145.125 320.336, 141 320.336 C 136.875 320.336, 135.188 320.513, 137.250 320.728 M 199.264 320.718 C 200.784 320.947, 203.034 320.941, 204.264 320.704 C 205.494 320.467, 204.250 320.279, 201.500 320.286 C 198.750 320.294, 197.744 320.488, 199.264 320.718 M 439.750 320.732 C 442.087 320.943, 445.913 320.943, 448.250 320.732 C 450.587 320.522, 448.675 320.349, 444 320.349 C 439.325 320.349, 437.413 320.522, 439.750 320.732 M 480.768 320.725 C 482.565 320.947, 485.265 320.943, 486.768 320.715 C 488.271 320.486, 486.800 320.304, 483.500 320.310 C 480.200 320.315, 478.971 320.502, 480.768 320.725 M 116.500 322.138 C 112.650 322.626, 109.050 323.208, 108.500 323.433 C 106.567 324.224, 112.605 323.854, 123 322.546 C 129.621 321.713, 131.653 321.230, 128.500 321.239 C 125.750 321.247, 120.350 321.651, 116.500 322.138 M 209.762 321.707 C 211.006 321.946, 212.806 321.937, 213.762 321.687 C 214.718 321.437, 213.700 321.241, 211.500 321.252 C 209.300 321.263, 208.518 321.468, 209.762 321.707 M 425.264 321.718 C 426.784 321.947, 429.034 321.941, 430.264 321.704 C 431.494 321.467, 430.250 321.279, 427.500 321.286 C 424.750 321.294, 423.744 321.488, 425.264 321.718 M 496.264 321.718 C 497.784 321.947, 500.034 321.941, 501.264 321.704 C 502.494 321.467, 501.250 321.279, 498.500 321.286 C 495.750 321.294, 494.744 321.488, 496.264 321.718 M 93.500 325.607 C 89.100 326.392, 85.050 327.216, 84.500 327.438 C 82.134 328.394, 88.237 327.741, 97.500 326.048 C 103 325.043, 106.150 324.211, 104.500 324.200 C 102.850 324.189, 97.900 324.822, 93.500 325.607 M 305.457 337.593 C 306.303 338.211, 311.596 338.714, 317.637 338.751 C 324.989 338.797, 327.882 338.507, 326.911 337.822 C 325.847 337.071, 326.053 336.948, 327.750 337.320 C 328.988 337.591, 330 337.517, 330 337.156 C 329.999 336.795, 324.141 336.500, 316.981 336.500 C 307.319 336.500, 304.348 336.782, 305.457 337.593 M 23.250 338.716 C 24.763 338.945, 27.238 338.945, 28.750 338.716 C 30.263 338.487, 29.025 338.300, 26 338.300 C 22.975 338.300, 21.738 338.487, 23.250 338.716 M 602.750 340.706 C 603.987 340.944, 606.013 340.944, 607.250 340.706 C 608.487 340.467, 607.475 340.272, 605 340.272 C 602.525 340.272, 601.513 340.467, 602.750 340.706 M 316.264 358.718 C 317.784 358.947, 320.034 358.941, 321.264 358.704 C 322.494 358.467, 321.250 358.279, 318.500 358.286 C 315.750 358.294, 314.744 358.488, 316.264 358.718" stroke="none" fill="#42b3b4" fill-rule="evenodd"/><path d="M 510.640 11.773 C 510.253 12.400, 509.302 12.669, 508.527 12.372 C 507.503 11.979, 507.194 12.538, 507.394 14.417 C 507.546 15.840, 508.007 17.340, 508.418 17.752 C 508.830 18.163, 509.076 18.050, 508.965 17.500 C 508.374 14.573, 509.137 14.016, 513.250 14.369 C 515.587 14.569, 518.063 14.288, 518.750 13.744 C 519.587 13.082, 520 13.107, 520 13.819 C 520 14.403, 519.521 15.178, 518.935 15.540 C 518.228 15.977, 518.391 16.775, 519.421 17.913 C 521.186 19.863, 519.764 22.230, 517.378 21.315 C 515.525 20.604, 515.640 21.497, 517.662 23.519 C 519.031 24.888, 519.084 25.330, 517.962 26.024 C 517.111 26.550, 517.991 26.755, 520.307 26.572 C 523.580 26.312, 523.867 26.465, 522.757 27.876 C 519.449 32.081, 517.994 33.212, 516.588 32.672 C 515.750 32.351, 514.798 32.518, 514.473 33.044 C 514.148 33.570, 514.584 34, 515.441 34 C 516.298 34, 517 34.477, 517 35.059 C 517 35.641, 516.550 35.840, 516 35.500 C 515.450 35.160, 515 35.809, 515 36.941 C 515 38.073, 514.598 39, 514.107 39 C 513.616 39, 512.931 39.739, 512.584 40.641 C 512.057 42.014, 512.204 42.076, 513.477 41.019 C 515.108 39.666, 515.494 40.673, 514.155 42.784 C 513.703 43.496, 512.592 43.780, 511.659 43.423 C 510.403 42.941, 510.133 43.184, 510.593 44.383 C 510.932 45.266, 511.612 45.740, 512.105 45.435 C 512.597 45.131, 513 45.584, 513 46.441 C 513 47.298, 512.564 48, 512.032 48 C 511.500 48, 510.393 49.237, 509.572 50.750 C 508.751 52.262, 508.062 53.107, 508.040 52.628 C 508.018 52.148, 507.330 52.311, 506.512 52.990 C 505.296 53.999, 504.895 53.885, 504.318 52.363 C 503.314 49.715, 501.236 47.809, 500.555 48.912 C 500.239 49.422, 500.661 50.518, 501.491 51.348 C 503.272 53.129, 503.495 54.424, 501.845 53.405 C 501.094 52.940, 500.964 53.133, 501.474 53.957 C 501.929 54.695, 501.684 55.577, 500.886 56.070 C 499.729 56.786, 499.732 57.117, 500.905 58.208 C 502.048 59.272, 502.152 59.252, 501.492 58.095 C 500.955 57.154, 501.072 56.926, 501.845 57.405 C 502.583 57.861, 503 57.331, 503 55.937 C 503 54.174, 503.270 53.979, 504.409 54.924 C 505.596 55.910, 505.439 56.503, 503.409 58.693 C 502.084 60.122, 501 61.703, 501 62.205 C 501 62.707, 500.502 62.810, 499.893 62.434 C 499.119 61.955, 499.185 61.504, 500.114 60.929 C 500.845 60.478, 501.081 59.747, 500.639 59.306 C 500.198 58.864, 499.198 59.376, 498.418 60.443 C 496.793 62.666, 496.508 65.422, 498 64.500 C 498.550 64.160, 499 64.617, 499 65.514 C 499 66.548, 498.358 67.006, 497.250 66.764 C 496.288 66.553, 495.624 65.812, 495.775 65.116 C 495.926 64.421, 495.588 64.136, 495.025 64.485 C 493.581 65.377, 493.747 67.995, 495.250 68.027 C 495.938 68.041, 495.262 68.820, 493.750 69.758 C 492.238 70.696, 491 71.864, 491 72.354 C 491 72.844, 491.660 72.697, 492.466 72.028 C 493.273 71.359, 494.510 71.033, 495.216 71.304 C 495.929 71.578, 495.037 72.337, 493.211 73.010 C 490.190 74.124, 490.068 74.329, 491.710 75.530 C 492.693 76.248, 493.160 77.173, 492.748 77.585 C 492.337 77.997, 492 77.808, 492 77.167 C 492 76.525, 491.325 76, 490.500 76 C 489.675 76, 489 76.550, 489 77.223 C 489 77.895, 488.299 77.445, 487.443 76.223 C 485.661 73.678, 484 73.314, 484 75.469 C 484 76.363, 484.586 76.712, 485.500 76.362 C 486.325 76.045, 487 76.284, 487 76.893 C 487 77.502, 486.325 78, 485.500 78 C 484.675 78, 484 78.498, 484 79.107 C 484 79.716, 484.698 79.946, 485.552 79.618 C 486.424 79.284, 486.842 79.447, 486.506 79.991 C 486.177 80.523, 486.439 81.980, 487.089 83.229 C 487.739 84.478, 487.914 85.166, 487.477 84.759 C 487.041 84.351, 486.120 84.485, 485.431 85.057 C 484.650 85.705, 483.956 85.737, 483.588 85.142 C 483.264 84.617, 482.098 84.423, 480.999 84.711 C 478.958 85.244, 478.168 83.579, 480.025 82.658 C 480.589 82.379, 480.476 82.266, 479.775 82.408 C 479.074 82.550, 478.450 83.629, 478.388 84.807 C 478.323 86.044, 478.711 86.678, 479.308 86.310 C 479.932 85.924, 480.095 86.310, 479.721 87.285 C 479.286 88.418, 479.533 88.733, 480.551 88.342 C 481.348 88.036, 482 88.284, 482 88.893 C 482 90.292, 479.732 90.332, 478.358 88.958 C 477.634 88.234, 476.923 88.388, 476.035 89.458 C 474.936 90.782, 475.134 91, 477.437 91 C 478.911 91, 479.866 91.408, 479.558 91.906 C 479.250 92.404, 477.986 92.590, 476.749 92.319 C 474.942 91.923, 474.795 92.037, 476 92.898 C 477.104 93.686, 477.154 93.973, 476.191 93.985 C 475.448 93.993, 475.194 94.506, 475.605 95.170 C 476.096 95.964, 475.776 96.128, 474.612 95.681 C 473.464 95.241, 473.131 95.402, 473.604 96.169 C 474.081 96.939, 473.643 97.140, 472.270 96.781 C 470.616 96.348, 470.253 96.696, 470.363 98.611 C 470.439 99.912, 471.092 101.204, 471.815 101.482 C 472.743 101.838, 472.944 101.399, 472.498 99.994 C 471.788 97.756, 473.483 97.211, 474.326 99.406 C 475.132 101.507, 471.705 104.305, 470.186 102.786 C 469.271 101.871, 469 101.874, 469 102.800 C 469 103.460, 469.450 104, 470 104 C 471.546 104, 471.181 106.993, 469.560 107.616 C 468.587 107.989, 468.190 109.441, 468.338 112.084 C 468.459 114.242, 468.095 116, 467.528 116 C 465.596 116, 466.374 108.610, 468.500 106.764 C 470.476 105.049, 470.470 105.032, 468 105.368 C 465.793 105.668, 465.514 106.165, 465.623 109.604 C 465.690 111.747, 465.309 113.779, 464.775 114.120 C 464.235 114.464, 464.820 115.686, 466.090 116.870 C 467.348 118.041, 467.869 119, 467.248 119 C 466.626 119, 465.835 118.543, 465.490 117.984 C 465.144 117.425, 464.413 117.245, 463.864 117.584 C 463.315 117.923, 462.967 117.593, 463.091 116.850 C 463.388 115.066, 462.014 112, 460.918 112 C 460.440 112, 460.482 113.138, 461.011 114.529 C 462.575 118.642, 461.930 121.794, 459.647 121.197 C 457.978 120.761, 457.799 121.062, 458.372 123.345 C 458.874 125.346, 458.664 126, 457.519 126 C 456.684 126, 456.089 126.338, 456.198 126.750 C 456.579 128.190, 454.857 132, 453.826 132 C 453.254 132, 453.031 131.362, 453.330 130.583 C 453.629 129.803, 453.187 128.902, 452.347 128.580 C 450.517 127.877, 448.994 128.668, 449.015 130.309 C 449.026 131.138, 449.283 131.102, 449.861 130.190 C 450.488 129.202, 451.097 129.500, 452.346 131.405 C 454.382 134.513, 454.403 135, 452.500 135 C 451.675 135, 451 134.298, 451 133.441 C 451 132.584, 450.528 132.174, 449.951 132.530 C 449.231 132.975, 449.258 133.605, 450.038 134.545 C 451.535 136.349, 450.421 137.996, 447.691 138.015 C 445.970 138.027, 445.812 138.228, 446.952 138.949 C 447.751 139.455, 448.763 139.646, 449.202 139.375 C 449.641 139.104, 450 139.584, 450 140.441 C 450 141.298, 449.514 142, 448.921 142 C 448.241 142, 448.085 143.113, 448.500 145 C 448.931 146.962, 448.765 148, 448.020 148 C 447.394 148, 447.160 147.550, 447.500 147 C 447.840 146.450, 447.641 146, 447.059 146 C 446.477 146, 446 146.477, 446 147.059 C 446 147.641, 445.597 147.869, 445.104 147.564 C 444.008 146.887, 438.797 149.464, 439.613 150.280 C 439.933 150.600, 440.905 150.590, 441.771 150.257 C 442.958 149.802, 443.181 150.086, 442.674 151.408 C 442.303 152.374, 442 153.407, 442 153.704 C 442 154.002, 441.386 153.736, 440.637 153.113 C 439.537 152.201, 439.328 152.483, 439.557 154.567 C 439.769 156.498, 439.468 157.010, 438.368 156.588 C 437.377 156.207, 437.149 156.427, 437.670 157.261 C 438.983 159.363, 438.983 161.231, 437.670 160.141 C 436.836 159.450, 436.459 159.863, 436.356 161.579 C 436.277 162.903, 436.609 163.741, 437.095 163.441 C 437.580 163.142, 437.709 163.594, 437.382 164.448 C 436.577 166.545, 436.288 166.429, 434.679 163.357 C 433.794 161.668, 433.040 161.127, 432.588 161.857 C 432.200 162.486, 432.407 163, 433.048 163 C 433.691 163, 433.947 163.696, 433.618 164.552 C 433.277 165.442, 433.445 165.843, 434.011 165.493 C 434.555 165.157, 435 165.584, 435 166.441 C 435 168.303, 434.553 168.359, 431.684 166.854 L 429.500 165.709 431.458 167.913 C 433.648 170.378, 432.723 173.218, 429.524 173.846 C 428.446 174.058, 428.026 173.768, 428.441 173.096 C 428.813 172.493, 428.641 172, 428.059 172 C 426.687 172, 426.691 173.691, 428.065 174.540 C 428.768 174.974, 428.577 175.810, 427.504 176.996 C 426.218 178.417, 426.152 178.919, 427.189 179.396 C 428.168 179.847, 428.198 180.143, 427.306 180.565 C 426.650 180.875, 426.388 181.847, 426.725 182.725 C 427.206 183.979, 426.859 184.197, 425.112 183.739 C 423.252 183.253, 423.084 183.396, 424.092 184.611 C 425.117 185.846, 424.932 185.925, 422.864 185.138 C 421.131 184.480, 419.880 184.615, 418.524 185.606 C 416.850 186.831, 416.823 187, 418.309 187 C 419.239 187, 420 186.471, 420 185.825 C 420 185.179, 420.835 185.516, 421.856 186.575 C 423.711 188.500, 423.672 191, 421.786 191 C 421.236 191, 421.045 190.325, 421.362 189.500 C 421.678 188.675, 421.501 188, 420.969 188 C 419.744 188, 419.744 189.195, 420.969 192.418 C 421.836 194.699, 421.705 194.941, 419.719 194.733 C 418.498 194.605, 417.175 194.050, 416.778 193.500 C 416.381 192.950, 416.332 194.212, 416.668 196.304 C 417.272 200.061, 417.244 200.101, 414.390 199.548 C 412.800 199.240, 412.065 199.254, 412.756 199.579 C 413.447 199.905, 413.751 200.594, 413.432 201.110 C 413.113 201.627, 413.222 201.926, 413.676 201.775 C 414.129 201.624, 414.613 201.950, 414.750 202.500 C 414.887 203.050, 414.550 203.500, 414 203.500 C 412.975 203.500, 412.889 204.546, 413.732 206.744 C 413.995 207.429, 414.682 207.697, 415.259 207.340 C 415.892 206.949, 416.010 207.175, 415.555 207.911 C 414.989 208.827, 414.329 208.703, 412.901 207.410 C 411.158 205.833, 411 205.828, 411 207.345 C 411 209.170, 409.471 209.571, 408.500 208 C 407.683 206.678, 406 206.718, 406 208.059 C 406 208.641, 406.450 208.840, 407 208.500 C 407.550 208.160, 408 208.572, 408 209.416 C 408 210.645, 408.504 210.759, 410.536 209.986 C 412.536 209.226, 413.200 209.358, 413.681 210.612 C 414.299 212.223, 412.535 213.957, 410.250 213.985 C 409.563 213.993, 409 213.550, 409 213 C 409 212.450, 408.523 212, 407.941 212 C 407.359 212, 407.160 212.450, 407.500 212.999 C 407.839 213.549, 406.516 214.943, 404.559 216.098 C 402.601 217.253, 401 218.340, 401 218.514 C 401 219.011, 414.441 213.735, 415 213.018 C 415.275 212.666, 416.400 212.334, 417.500 212.281 C 418.600 212.229, 424.123 210.777, 429.774 209.054 C 452.620 202.091, 485.221 196.769, 515.253 195.101 C 526.811 194.459, 531.653 193.802, 533.436 192.634 C 536.696 190.498, 540.886 184.884, 541.925 181.261 C 542.697 178.568, 540.981 148.355, 538.048 113 C 537.477 106.125, 536.110 89.025, 535.010 75 C 533.910 60.975, 532.807 47.250, 532.559 44.500 C 532.311 41.750, 531.804 34.550, 531.432 28.500 C 530.747 17.353, 529.389 12.747, 526.455 11.621 C 525.565 11.280, 522.173 11, 518.918 11 C 513.975 11, 512.988 11.288, 512.930 12.750 C 512.868 14.276, 512.762 14.252, 512.102 12.566 C 511.604 11.295, 511.104 11.023, 510.640 11.773 M 107.455 14.455 C 105.458 16.451, 105.034 17.804, 105.180 21.705 L 105.360 26.500 105.731 21.859 C 106.349 14.100, 107.689 13.508, 124.340 13.632 C 137.249 13.728, 137.749 13.669, 130 12.968 C 113.688 11.492, 110.187 11.722, 107.455 14.455 M 486 12.947 C 483.869 13.363, 486.507 13.605, 492.741 13.565 C 498.374 13.529, 502.986 13.162, 502.991 12.750 C 503.002 11.847, 490.914 11.987, 486 12.947 M 470.500 14 L 464.500 14.664 469.500 14.774 C 472.250 14.835, 476.300 14.512, 478.500 14.057 C 481.749 13.385, 481.937 13.240, 479.500 13.283 C 477.850 13.312, 473.800 13.635, 470.500 14 M 142.092 14.425 C 142.814 15.147, 156.973 15.361, 157.673 14.660 C 158.036 14.297, 154.583 14, 150 14 C 145.417 14, 141.858 14.191, 142.092 14.425 M 162.762 15.707 C 164.006 15.946, 165.806 15.937, 166.762 15.687 C 167.718 15.437, 166.700 15.241, 164.500 15.252 C 162.300 15.263, 161.518 15.468, 162.762 15.707 M 452 16 L 448.500 16.737 452 16.750 C 453.925 16.757, 456.850 16.420, 458.500 16 L 461.500 15.237 458.500 15.250 C 456.850 15.257, 453.925 15.595, 452 16 M 170.762 16.707 C 172.006 16.946, 173.806 16.937, 174.762 16.687 C 175.718 16.437, 174.700 16.241, 172.500 16.252 C 170.300 16.263, 169.518 16.468, 170.762 16.707 M 179.762 17.707 C 181.006 17.946, 182.806 17.937, 183.762 17.687 C 184.718 17.437, 183.700 17.241, 181.500 17.252 C 179.300 17.263, 178.518 17.468, 179.762 17.707 M 191 19.353 C 193.475 20.009, 196.625 20.333, 198 20.074 C 200.125 19.673, 199.900 19.491, 196.500 18.859 C 194.300 18.450, 191.150 18.126, 189.500 18.138 C 186.976 18.157, 187.214 18.350, 191 19.353 M 421 20.977 C 385.348 28.292, 362.035 37.169, 347 49.153 C 340.086 54.665, 332.989 62.361, 333.017 64.318 C 333.026 64.968, 333.970 64.038, 335.114 62.251 C 336.259 60.464, 337.601 59.253, 338.097 59.560 C 338.594 59.867, 339 59.508, 339 58.762 C 339 58.016, 340.381 56.302, 342.070 54.953 C 343.758 53.604, 346.121 51.600, 347.320 50.500 C 348.519 49.400, 349.784 48.595, 350.131 48.710 C 350.478 48.826, 351.560 48.038, 352.536 46.960 C 353.512 45.882, 354.860 45, 355.533 45 C 356.205 45, 357.311 44.330, 357.991 43.511 C 358.671 42.692, 359.587 42.245, 360.028 42.517 C 360.469 42.790, 361.005 42.486, 361.219 41.844 C 361.433 41.201, 362.372 40.563, 363.306 40.426 C 364.240 40.288, 366.916 39.291, 369.252 38.209 C 374.346 35.849, 377.027 34.794, 378.881 34.418 C 379.640 34.264, 380.743 33.657, 381.331 33.069 C 381.919 32.481, 383.141 32, 384.046 32 C 384.952 32, 387.050 31.323, 388.708 30.496 C 390.367 29.668, 393.699 28.583, 396.112 28.083 C 398.525 27.584, 405 26.064, 410.500 24.705 C 416 23.346, 423.650 21.664, 427.500 20.967 C 431.350 20.270, 436.075 19.362, 438 18.950 L 441.500 18.201 438 18.204 C 436.075 18.206, 428.425 19.454, 421 20.977 M 212.630 23.030 C 213.313 23.713, 214.478 23.734, 216.080 23.094 C 218.354 22.185, 218.292 22.123, 215.050 22.063 C 212.682 22.020, 211.923 22.323, 212.630 23.030 M 218.463 24.060 C 217.961 24.873, 218.099 25.057, 218.859 24.587 C 219.501 24.190, 222.495 24.584, 225.513 25.461 C 230.829 27.006, 232.329 28.359, 229.750 29.280 C 229.063 29.525, 228.784 30.034, 229.131 30.411 C 229.478 30.787, 230.458 30.399, 231.310 29.548 C 233.262 27.595, 235.667 27.545, 235.667 29.456 C 235.667 30.257, 235.382 30.736, 235.033 30.521 C 234.685 30.305, 233.867 30.984, 233.215 32.028 C 232.203 33.647, 232.276 33.831, 233.713 33.280 C 235.080 32.755, 234.983 33.215, 233.199 35.721 C 230.698 39.232, 230.354 41.185, 232.372 40.411 C 233.381 40.023, 233.616 40.558, 233.258 42.430 C 232.990 43.831, 232.378 44.734, 231.897 44.436 C 231.416 44.139, 231.269 44.537, 231.569 45.320 C 231.932 46.266, 231.257 46.909, 229.558 47.234 C 228.151 47.503, 227 47.383, 227 46.968 C 227 46.553, 226.332 45.957, 225.515 45.644 C 224.268 45.166, 224.228 45.396, 225.265 47.080 C 225.992 48.261, 227.220 48.901, 228.251 48.636 C 229.391 48.344, 229.753 48.590, 229.289 49.342 C 228.896 49.978, 228.558 51.398, 228.537 52.499 C 228.512 53.871, 227.821 54.500, 226.340 54.500 C 225.153 54.500, 223.915 54.763, 223.590 55.083 C 222.577 56.084, 222.212 62.013, 223.129 62.580 C 223.608 62.876, 224 62.431, 224 61.590 C 224 60.624, 224.567 60.280, 225.545 60.656 C 226.837 61.151, 226.744 61.491, 224.980 62.727 C 223.086 64.053, 222.736 64.022, 221.567 62.422 C 220.335 60.738, 220.199 60.760, 219.096 62.820 C 218.031 64.810, 218.165 65, 220.631 65 C 224.345 65, 222.954 66.107, 219.103 66.216 C 216.276 66.297, 215.819 66.667, 216.090 68.660 C 216.139 69.023, 215.464 69.721, 214.590 70.210 C 212.534 71.360, 212.564 73.861, 214.661 76.177 C 215.574 77.187, 215.999 78.334, 215.606 78.727 C 215.213 79.120, 214.575 78.931, 214.189 78.306 C 213.672 77.470, 212.848 77.511, 211.070 78.462 L 208.654 79.755 210.827 80.445 C 212.022 80.824, 213 81.779, 213 82.567 C 213 84.501, 211.314 84.383, 210.188 82.372 C 209.501 81.143, 209.088 81.048, 208.510 81.983 C 208.074 82.690, 208.335 83.589, 209.117 84.072 C 210.224 84.757, 210.104 85.219, 208.495 86.458 C 207.398 87.303, 205.687 87.806, 204.693 87.576 C 203.236 87.239, 203.113 87.431, 204.056 88.568 C 204.700 89.343, 205.626 89.731, 206.113 89.430 C 206.601 89.129, 207 89.359, 207 89.941 C 207 90.523, 206.534 91, 205.965 91 C 205.273 91, 205.295 91.682, 206.031 93.059 C 206.637 94.191, 206.838 96.459, 206.478 98.100 C 206.106 99.796, 206.296 101.652, 206.920 102.404 C 207.792 103.455, 207.503 103.628, 205.509 103.246 C 204.042 102.966, 203 103.231, 203 103.883 C 203 104.498, 203.525 105, 204.167 105 C 204.808 105, 205.098 105.236, 204.810 105.524 C 203.664 106.670, 201 104.658, 200.995 102.643 C 200.990 100.757, 200.766 100.860, 199.128 103.500 C 198.047 105.244, 197.619 106.948, 198.107 107.571 C 198.570 108.160, 198.847 110.049, 198.724 111.770 C 198.516 114.679, 198.356 114.804, 196.450 113.557 C 194.657 112.384, 194.193 112.472, 192.746 114.255 C 191.284 116.056, 191.261 116.535, 192.546 118.369 C 194.653 121.377, 194.332 122.689, 192.115 120.132 C 190.509 118.281, 190.140 118.192, 189.626 119.531 C 189.246 120.521, 189.429 120.853, 190.119 120.427 C 190.854 119.972, 190.987 120.465, 190.525 121.923 C 190.145 123.118, 190.333 124.697, 190.943 125.431 C 191.783 126.443, 191.647 126.922, 190.382 127.407 C 188.425 128.158, 187.062 127.209, 188.642 126.196 C 189.295 125.777, 189.411 124.703, 188.934 123.500 C 188.498 122.400, 188.109 122.063, 188.070 122.750 C 187.936 125.140, 187.825 125.506, 186.889 126.633 C 186.274 127.375, 186.435 127.953, 187.356 128.306 C 189.170 129.003, 190.091 136, 188.369 136 C 187.692 136, 186.991 137.012, 186.811 138.250 C 186.532 140.158, 186.376 140.238, 185.783 138.779 C 185.390 137.808, 185.648 136.495, 186.376 135.767 C 188.317 133.826, 188.007 131.185, 185.903 131.736 C 184.886 132.002, 184.366 132.791, 184.676 133.599 C 184.972 134.369, 184.746 135, 184.173 135 C 183.601 135, 183.336 136.125, 183.586 137.500 C 183.835 138.875, 183.580 140, 183.020 140 C 182.459 140, 182 140.702, 182 141.559 C 182 142.416, 181.532 142.829, 180.959 142.475 C 180.387 142.121, 180.172 141.033, 180.482 140.057 C 180.809 139.026, 180.327 137.700, 179.331 136.891 C 178.094 135.888, 177.832 135.859, 178.392 136.790 C 178.886 137.612, 178.229 138.819, 176.584 140.113 C 175.163 141.231, 174 142.647, 174 143.261 C 174 143.875, 174.945 143.363, 176.101 142.122 C 177.256 140.882, 178.480 140.147, 178.822 140.488 C 179.163 140.830, 178.858 141.470, 178.144 141.911 C 177.430 142.352, 176.934 143.340, 177.042 144.106 C 177.574 147.906, 176.866 150.222, 175.024 150.704 C 173.460 151.113, 173.252 151.601, 174.024 153.045 C 175.273 155.379, 175.380 158.148, 174.146 156.203 C 173.488 155.165, 173.068 155.213, 172.049 156.441 C 170.999 157.707, 171.058 158.085, 172.387 158.595 C 173.274 158.936, 174 159.642, 174 160.166 C 174 160.690, 173.554 160.842, 173.008 160.505 C 172.462 160.168, 171.225 160.400, 170.258 161.021 C 168.670 162.042, 168.693 162.089, 170.498 161.512 C 172.108 160.997, 171.926 161.468, 169.561 163.936 C 167.947 165.621, 167.160 167, 167.813 167 C 168.466 167, 169 166.495, 169 165.878 C 169 165.102, 169.464 165.140, 170.500 166 C 172.168 167.384, 172.580 169.476, 170.991 168.494 C 169.273 167.433, 165.805 169.049, 166.411 170.628 C 166.716 171.424, 166.265 172.345, 165.409 172.673 C 164.298 173.100, 164.032 174.021, 164.481 175.886 L 165.112 178.500 163.498 176.248 C 162.610 175.010, 162.162 173.547, 162.501 172.998 C 162.840 172.449, 162.641 172, 162.059 172 C 161.477 172, 161 172.810, 161 173.800 C 161 174.790, 160.460 176.140, 159.800 176.800 C 159.140 177.460, 158.970 178, 159.422 178 C 159.875 178, 159.685 178.675, 159 179.500 C 157.984 180.724, 158.042 181, 159.315 181 C 160.241 181, 160.817 181.786, 160.730 182.931 C 160.650 183.993, 160.259 184.660, 159.862 184.414 C 159.464 184.169, 158.851 184.432, 158.500 185 C 158.149 185.568, 157.432 185.767, 156.906 185.442 C 156.381 185.117, 156.033 185.222, 156.134 185.676 C 156.685 188.150, 153.159 192.886, 151.241 192.247 C 150.558 192.019, 150 192.321, 150 192.917 C 150 193.512, 150.540 194, 151.200 194 C 152.109 194, 152.119 194.281, 151.242 195.158 C 150.366 196.034, 149.711 196.005, 148.542 195.035 C 147.680 194.319, 147 194.201, 147 194.766 C 147 195.777, 143.945 195.951, 143 194.994 C 142.725 194.716, 140.700 194.721, 138.500 195.006 C 135.386 195.410, 137.077 195.822, 146.128 196.868 C 152.524 197.607, 158.824 197.910, 160.128 197.540 C 161.609 197.121, 162.027 197.200, 161.241 197.749 C 160.425 198.319, 163.423 199.272, 169.741 200.451 C 215.713 209.029, 251.415 226.103, 277.588 252.029 C 291.667 265.974, 302.673 283.369, 307.007 298.524 C 310.043 309.139, 309.386 309.361, 304.218 299.465 C 289.753 271.769, 268.990 251.983, 238.200 236.556 C 214.698 224.780, 193.289 218.188, 163.174 213.455 C 146.661 210.860, 115.602 208, 103.926 208 L 97.010 208 94.871 203.448 C 92.377 198.142, 88.239 194.709, 82.181 192.918 L 77.862 191.642 78.442 187.071 C 79.234 180.835, 86.303 80.746, 87.655 56.632 L 88.320 44.764 85.910 45.486 C 82.471 46.516, 76.437 50.100, 69.500 55.231 C 62.600 60.336, 56.367 69.830, 55.593 76.416 C 54.322 87.216, 49.770 123.719, 48.473 133.500 C 47.672 139.550, 45.423 157.550, 43.476 173.500 C 40.400 198.711, 36.049 233.965, 34.467 246.500 C 34.189 248.700, 33.473 253.580, 32.875 257.344 C 32.138 261.985, 32.115 264.515, 32.805 265.205 C 33.495 265.895, 39.182 265.031, 50.474 262.521 C 80.838 255.770, 95.690 253.894, 123.525 253.292 C 143.531 252.859, 151.195 253.087, 161.735 254.429 C 185.353 257.435, 204.186 262.772, 223.500 271.934 C 237.240 278.451, 246.502 284.322, 256.500 292.852 C 262.644 298.094, 271 307.589, 271 309.329 C 271 309.665, 269.391 308.848, 267.425 307.514 C 252.837 297.614, 214.174 291.614, 171.500 292.627 C 128.101 293.657, 95.717 297.942, 50.908 308.584 C 30.893 313.338, 25.276 313.882, 21.534 311.430 C 19.188 309.893, 19.044 309.982, 14.570 315.680 C 12.057 318.881, 10.009 322.175, 10.017 323 C 10.026 323.825, 11.033 322.925, 12.255 321 C 15.132 316.468, 19.088 312, 20.224 312 C 20.716 312, 20.871 312.399, 20.570 312.887 C 20.269 313.374, 20.648 314.293, 21.414 314.928 C 22.477 315.811, 22.917 315.779, 23.278 314.792 C 23.641 313.798, 24.039 313.772, 25.002 314.677 C 25.752 315.382, 27.105 315.551, 28.377 315.097 C 29.545 314.681, 33.151 314.442, 36.390 314.566 C 40.271 314.714, 41.806 314.475, 40.890 313.865 C 39.957 313.244, 40.404 313.149, 42.250 313.578 C 43.980 313.980, 45 313.806, 45 313.108 C 45 312.499, 45.450 312, 46 312 C 47.798 312, 47.049 313.850, 44.985 314.505 C 43.877 314.856, 43.210 315.531, 43.502 316.003 C 43.794 316.475, 43.580 317.141, 43.027 317.483 C 42.394 317.875, 42.581 318.957, 43.534 320.411 C 44.365 321.680, 44.779 323.411, 44.455 324.258 C 44.130 325.105, 44.339 326.092, 44.920 326.451 C 45.548 326.838, 45.751 326.514, 45.420 325.653 C 44.708 323.797, 46.835 322.435, 48.245 323.845 C 49.005 324.605, 48.955 325.349, 48.072 326.414 C 47.387 327.238, 47.156 328.444, 47.558 329.093 C 48.033 329.862, 48.751 329.266, 49.614 327.387 C 50.343 325.799, 50.900 325.175, 50.851 326 C 50.661 329.226, 51.082 330.097, 53.250 330.969 L 55.500 331.873 53.050 331.937 C 51.306 331.982, 50.909 332.309, 51.673 333.073 C 52.422 333.822, 53.916 333.838, 56.623 333.127 C 71.697 329.169, 107.857 323.036, 129 320.852 C 145.494 319.148, 196.120 319.130, 210.500 320.822 C 234.663 323.667, 259.023 329.003, 264.638 332.682 C 265.888 333.501, 268.038 336.096, 269.417 338.448 C 276.929 351.266, 293.266 357.574, 318.500 357.399 C 343.742 357.224, 358.326 351.107, 366.502 337.267 C 368.907 333.194, 373.739 330.611, 383.699 328.073 C 408.280 321.809, 435.195 319.477, 473.334 320.307 C 511.144 321.130, 535.576 324.520, 577 334.691 C 597.311 339.679, 607.689 340.918, 613.389 339.037 C 621.594 336.329, 626.220 329.227, 624.054 322.664 C 623.449 320.830, 620.826 316.981, 618.227 314.111 L 613.500 308.894 609.539 310.947 C 607.360 312.076, 604.782 313, 603.810 313 C 602.838 313, 595.170 311.234, 586.771 309.075 C 538.596 296.692, 501.172 292.358, 450.500 293.294 C 410.807 294.027, 386.617 297.791, 369.840 305.843 L 364.134 308.582 365.817 305.600 C 368.898 300.142, 380.391 289.336, 389.252 283.568 C 410.510 269.730, 437.060 260.329, 469 255.328 C 483.338 253.083, 525.815 252.794, 542 254.831 C 556.385 256.641, 575.346 260.431, 588.382 264.101 C 597.394 266.638, 599.476 266.935, 600.496 265.832 C 601.474 264.774, 601.264 260.590, 599.476 245.500 C 598.237 235.050, 596.017 215.925, 594.543 203 C 589.371 157.659, 582.046 97.371, 580.111 84.222 C 577.967 69.652, 576.024 65.047, 569.218 58.406 C 563.286 52.618, 551.172 45, 547.898 45 C 546.478 45, 546.989 55.617, 550.520 99.500 C 551.848 116, 553.621 140.525, 554.461 154 C 555.300 167.475, 556.261 181.537, 556.595 185.250 C 557.184 191.792, 557.133 192, 554.917 192 C 551.429 192, 544.238 195.851, 542.153 198.836 C 541.129 200.301, 539.994 202.731, 539.631 204.235 C 538.809 207.635, 538.335 207.732, 519.286 208.428 C 484.575 209.695, 445.935 216.424, 418.500 225.981 C 405.805 230.403, 387.006 239.748, 375.930 247.142 C 364.327 254.889, 347.182 271.759, 340.527 281.978 C 335.601 289.543, 327 306.699, 327 308.961 C 327 309.638, 326.069 311.498, 324.932 313.096 C 323.140 315.612, 322.222 316, 318.054 316 C 315.199 316, 312.782 315.443, 312.106 314.628 C 309.980 312.066, 309.014 258.324, 309.005 142.191 C 309.002 102.971, 308.616 71.119, 308.148 71.409 C 307.679 71.699, 305.849 69.704, 304.081 66.976 C 296.212 54.832, 286.208 46.415, 270.757 38.940 C 261.602 34.511, 241.923 27.838, 230.751 25.374 C 226.763 24.494, 222.540 23.558, 221.367 23.293 C 220.194 23.028, 218.887 23.374, 218.463 24.060 M 519.250 33.742 C 517.566 34.314, 517.669 35.659, 519.449 36.342 C 520.481 36.738, 520.720 36.409, 520.280 35.199 C 519.744 33.727, 519.951 33.755, 521.830 35.405 C 523.024 36.453, 524 36.898, 524 36.396 C 524 35.075, 520.719 33.242, 519.250 33.742 M 225.500 37 C 225.160 37.550, 225.535 38, 226.334 38 C 227.133 38, 228.070 38.739, 228.417 39.643 C 228.763 40.547, 229.293 41.041, 229.593 40.741 C 230.236 40.097, 227.838 36, 226.818 36 C 226.433 36, 225.840 36.450, 225.500 37 M 518 40.178 C 516.352 41.570, 515.928 42.440, 516.756 42.730 C 517.447 42.973, 517.761 43.577, 517.454 44.074 C 517.147 44.571, 517.684 44.675, 518.648 44.305 C 519.724 43.892, 519.937 43.479, 519.199 43.233 C 518.540 43.013, 518 42.394, 518 41.858 C 518 41.321, 518.403 41.131, 518.895 41.435 C 519.388 41.740, 520.095 41.204, 520.467 40.244 C 521.096 38.622, 521.243 38.636, 522.571 40.441 C 523.357 41.509, 524 41.936, 524 41.391 C 524 40.318, 521.945 37.979, 521.050 38.033 C 520.748 38.052, 519.375 39.017, 518 40.178 M 226.402 41.841 C 226.738 42.384, 226.469 43.010, 225.805 43.232 C 224.868 43.544, 224.866 43.799, 225.799 44.376 C 226.475 44.793, 227 44.601, 227 43.937 C 227 43.056, 227.382 43.072, 228.500 44 C 229.325 44.685, 230 44.848, 230 44.363 C 230 43.878, 229.053 42.890, 227.895 42.167 C 226.738 41.444, 226.066 41.297, 226.402 41.841 M 505.372 50.766 C 505.479 52.665, 505.678 52.789, 506.599 51.532 C 507.203 50.706, 507.935 50.269, 508.225 50.559 C 508.516 50.849, 509 50.442, 509.303 49.654 C 509.689 48.646, 509.169 48.262, 507.548 48.360 C 505.818 48.465, 505.275 49.066, 505.372 50.766 M 224 57 C 224 58.100, 224.354 59, 224.787 59 C 225.220 59, 225.642 58.100, 225.725 57 C 225.808 55.900, 225.454 55, 224.938 55 C 224.422 55, 224 55.900, 224 57 M 216.425 68.879 C 216.724 69.363, 217.902 70.003, 219.042 70.301 C 220.743 70.746, 220.903 70.588, 219.935 69.421 C 218.670 67.898, 215.518 67.411, 216.425 68.879 M 483.188 82.063 C 483.428 82.784, 484.216 83.572, 484.938 83.813 C 485.688 84.063, 486.063 83.688, 485.813 82.938 C 485.572 82.216, 484.784 81.428, 484.063 81.188 C 483.313 80.938, 482.938 81.313, 483.188 82.063 M 100.252 100.500 C 100.263 102.700, 100.468 103.482, 100.707 102.238 C 100.946 100.994, 100.937 99.194, 100.687 98.238 C 100.437 97.282, 100.241 98.300, 100.252 100.500 M 198.443 98.586 C 199.240 99.383, 200.479 99.915, 201.196 99.768 C 201.913 99.621, 202.387 100.063, 202.250 100.750 C 202.113 101.438, 202.450 102, 203 102 C 204.405 102, 204.249 99.272, 202.792 98.372 C 202.128 97.961, 200.551 97.515, 199.289 97.380 C 197.283 97.167, 197.176 97.319, 198.443 98.586 M 194.116 107.050 C 194 109.606, 195.566 112, 197.355 112 C 197.880 112, 197.612 111.213, 196.758 110.250 C 195.905 109.287, 194.987 107.600, 194.719 106.500 C 194.324 104.876, 194.210 104.980, 194.116 107.050 M 199 106.274 C 199 107.159, 199.408 108.134, 199.906 108.442 C 200.404 108.750, 200.573 110.014, 200.281 111.251 C 199.757 113.470, 199.771 113.473, 201.343 111.500 C 203.261 109.092, 203.426 107.912, 201.795 108.250 C 201.133 108.388, 200.570 107.975, 200.545 107.333 C 200.474 105.492, 199 104.482, 199 106.274 M 470 112.833 C 470 115.568, 470.199 115.522, 471.811 112.417 C 472.667 110.767, 472.591 110.333, 471.446 110.333 C 470.570 110.333, 470 111.319, 470 112.833 M 193.631 115.702 C 192.920 116.414, 195.797 119.254, 196.801 118.830 C 197.231 118.649, 196.815 117.750, 195.875 116.833 C 194.935 115.917, 193.926 115.408, 193.631 115.702 M 455 121 C 455 121.550, 454.325 122, 453.500 122 C 452.675 122, 452 122.685, 452 123.523 C 452 124.858, 452.308 124.844, 454.491 123.414 C 455.862 122.516, 456.735 121.380, 456.432 120.891 C 455.701 119.707, 455 119.760, 455 121 M 98.252 124.500 C 98.263 126.700, 98.468 127.482, 98.707 126.238 C 98.946 124.994, 98.937 123.194, 98.687 122.238 C 98.437 121.282, 98.241 122.300, 98.252 124.500 M 182.406 126.152 C 182.015 126.785, 182.431 127.842, 183.332 128.501 C 184.232 129.159, 184.638 130.063, 184.234 130.509 C 183.831 130.955, 184.131 130.955, 184.901 130.508 C 186.061 129.835, 186 129.473, 184.551 128.414 C 183.588 127.709, 183.096 126.653, 183.459 126.067 C 183.821 125.480, 183.893 125, 183.618 125 C 183.343 125, 182.798 125.518, 182.406 126.152 M 441 142.847 C 441 143.391, 440.733 144.661, 440.406 145.668 C 439.953 147.062, 440.046 147.171, 440.794 146.122 C 441.334 145.364, 442.277 145.053, 442.888 145.431 C 444.499 146.426, 444.252 145.109, 442.500 143.357 C 441.675 142.532, 441 142.302, 441 142.847 M 161 179.044 C 161 180.436, 161.558 180.994, 162.750 180.794 C 163.869 180.606, 164.384 181.041, 164.179 182 C 163.935 183.135, 164.142 183.220, 165.029 182.350 C 165.921 181.474, 165.700 180.700, 164.100 179.100 C 161.482 176.482, 161 176.473, 161 179.044 M 99.996 189.496 C 101.286 190.869, 102.527 191.806, 102.754 191.579 C 103.247 191.087, 99.295 187, 98.326 187 C 97.955 187, 98.707 188.123, 99.996 189.496 M 121.750 194.723 C 123.537 194.945, 126.463 194.945, 128.250 194.723 C 130.037 194.502, 128.575 194.320, 125 194.320 C 121.425 194.320, 119.963 194.502, 121.750 194.723 M 396.352 219.993 C 395.171 220.470, 393.884 221.379, 393.492 222.013 C 392.911 222.953, 398.466 220.671, 399.917 219.373 C 400.632 218.733, 398.599 219.087, 396.352 219.993 M 325.923 224.250 C 325.881 226.037, 325.721 229.426, 325.567 231.780 C 325.413 234.133, 325.672 236.297, 326.143 236.589 C 326.614 236.880, 327 233.491, 327 229.059 C 327 224.627, 326.775 221, 326.500 221 C 326.225 221, 325.966 222.463, 325.923 224.250 M 325.157 280.250 C 325.264 298.547, 325.575 305.529, 326.102 301.500 C 327.077 294.052, 326.777 253, 325.748 253 C 325.335 253, 325.068 265.262, 325.157 280.250 M 346.370 258.250 C 343.172 261.887, 338.769 268.105, 339.149 268.448 C 339.342 268.622, 341.618 265.893, 344.207 262.382 C 349.050 255.815, 349.842 254.302, 346.370 258.250 M 40.604 259.590 C 40.268 260.465, 40.247 261.590, 40.556 262.090 C 40.865 262.591, 39.516 263, 37.559 263 C 35.602 263, 34 263.486, 34 264.079 C 34 265.442, 39.716 264.290, 42.473 262.372 C 44.436 261.006, 44.436 261, 42.473 260.921 C 41.388 260.878, 41.063 260.615, 41.750 260.338 C 43.180 259.761, 43.449 258, 42.107 258 C 41.616 258, 40.939 258.716, 40.604 259.590 M 44.726 320.059 C 45.002 321.114, 45.677 321.700, 46.225 321.361 C 46.774 321.021, 47.599 321.351, 48.057 322.093 C 48.516 322.835, 49.253 323.056, 49.696 322.584 C 50.138 322.112, 49.938 321.525, 49.250 321.280 C 48.563 321.034, 48 320.292, 48 319.629 C 48 318.967, 47.150 318.362, 46.112 318.283 C 44.716 318.178, 44.355 318.641, 44.726 320.059 M 9.711 328.271 C 9.950 329.520, 11.040 331.657, 12.133 333.021 L 14.120 335.500 12.560 332.300 C 11.702 330.539, 11 328.402, 11 327.550 C 11 326.697, 10.612 326, 10.139 326 C 9.665 326, 9.473 327.022, 9.711 328.271 M 305.672 337.750 C 307.448 339.048, 325.390 339.555, 328.418 338.393 C 332.112 336.975, 329.240 336.500, 316.981 336.500 C 306.321 336.500, 304.272 336.726, 305.672 337.750 M 23.250 338.716 C 24.763 338.945, 27.238 338.945, 28.750 338.716 C 30.263 338.487, 29.025 338.300, 26 338.300 C 22.975 338.300, 21.738 338.487, 23.250 338.716" stroke="none" fill="#1b7e7d" fill-rule="evenodd"/></svg>